<svg width="441" height="506" viewBox="0 0 441 506" fill="none" xmlns="http://www.w3.org/2000/svg">
<g opacity="0.1">
<path d="M62.9534 57.53C85.8271 59.2166 97.7554 61.1234 104.777 68.1339C111.798 75.1444 113.708 87.0542 115.397 109.892C117.086 87.0542 118.996 75.1444 126.017 68.1339C133.039 61.1234 144.967 59.2166 167.841 57.53C144.967 55.8435 133.039 53.9367 126.017 46.9262C118.996 39.9157 117.086 28.0059 115.397 5.16773C113.708 28.0059 111.798 39.9157 104.777 46.9262C97.7554 53.9367 85.8271 55.8435 62.9534 57.53ZM115.397 115.068C115.217 115.068 115.068 114.928 115.056 114.748C113.271 88.917 111.626 75.9456 104.291 68.6226C96.957 61.2997 83.9654 59.6572 58.0946 57.8746C57.9141 57.8625 57.7736 57.7143 57.7736 57.5341C57.7736 57.3538 57.9141 57.2056 58.0946 57.1935C83.9654 55.4109 96.957 53.7684 104.291 46.4455C111.626 39.1225 113.271 26.1511 115.056 0.320479C115.068 0.14021 115.217 0 115.397 0C115.578 0 115.726 0.14021 115.738 0.320479C117.524 26.1511 119.169 39.1225 126.503 46.4455C133.837 53.7684 146.829 55.4109 172.7 57.1935C172.88 57.2056 173.021 57.3538 173.021 57.5341C173.021 57.7143 172.88 57.8625 172.7 57.8746C146.829 59.6572 133.837 61.2997 126.503 68.6226C119.169 75.9456 117.524 88.917 115.738 114.748C115.726 114.928 115.578 115.068 115.397 115.068Z" fill="url(#paint0_radial_256_374)"/>
<path d="M62.9534 57.53C85.8271 59.2166 97.7554 61.1234 104.777 68.1339C111.798 75.1444 113.708 87.0542 115.397 109.892C117.086 87.0542 118.996 75.1444 126.017 68.1339C133.039 61.1234 144.967 59.2166 167.841 57.53C144.967 55.8435 133.039 53.9367 126.017 46.9262C118.996 39.9157 117.086 28.0059 115.397 5.16773C113.708 28.0059 111.798 39.9157 104.777 46.9262C97.7554 53.9367 85.8271 55.8435 62.9534 57.53Z" fill="url(#paint1_radial_256_374)"/>
<path d="M178.2 57.53C201.074 59.2166 213.002 61.1234 220.024 68.1339C227.045 75.1444 228.955 87.0542 230.644 109.892C232.333 87.0542 234.243 75.1444 241.264 68.1339C248.286 61.1234 260.214 59.2166 283.088 57.53C260.214 55.8435 248.286 53.9367 241.264 46.9262C234.243 39.9157 232.333 28.0059 230.644 5.16773C228.955 28.0059 227.045 39.9157 220.024 46.9262C213.002 53.9367 201.074 55.8435 178.2 57.53ZM230.644 115.068C230.464 115.068 230.315 114.928 230.303 114.748C228.518 88.917 226.873 75.9456 219.538 68.6226C212.204 61.2997 199.212 59.6572 173.342 57.8746C173.161 57.8625 173.021 57.7143 173.021 57.5341C173.021 57.3538 173.161 57.2056 173.342 57.1935C199.212 55.4109 212.204 53.7684 219.538 46.4455C226.873 39.1225 228.518 26.1511 230.303 0.320479C230.315 0.14021 230.464 0 230.644 0C230.825 0 230.973 0.14021 230.985 0.320479C232.771 26.1511 234.416 39.1225 241.75 46.4455C249.084 53.7684 262.076 55.4109 287.947 57.1935C288.127 57.2056 288.268 57.3538 288.268 57.5341C288.268 57.7143 288.127 57.8625 287.947 57.8746C262.076 59.6572 249.084 61.2997 241.75 68.6226C234.416 75.9456 232.771 88.917 230.985 114.748C230.973 114.928 230.825 115.068 230.644 115.068Z" fill="url(#paint2_radial_256_374)"/>
<path d="M178.2 57.53C201.074 59.2166 213.002 61.1234 220.024 68.1339C227.045 75.1444 228.955 87.0542 230.644 109.892C232.333 87.0542 234.243 75.1444 241.264 68.1339C248.286 61.1234 260.214 59.2166 283.088 57.53C260.214 55.8435 248.286 53.9367 241.264 46.9262C234.243 39.9157 232.333 28.0059 230.644 5.16773C228.955 28.0059 227.045 39.9157 220.024 46.9262C213.002 53.9367 201.074 55.8435 178.2 57.53Z" fill="url(#paint3_radial_256_374)"/>
<path d="M293.447 57.53C316.321 59.2166 328.249 61.1234 335.271 68.1339C342.292 75.1444 344.202 87.0542 345.891 109.892C347.58 87.0542 349.49 75.1444 356.511 68.1339C363.533 61.1234 375.461 59.2166 398.335 57.53C375.461 55.8435 363.533 53.9367 356.511 46.9262C349.49 39.9157 347.58 28.0059 345.891 5.16773C344.202 28.0059 342.292 39.9157 335.271 46.9262C328.249 53.9367 316.321 55.8435 293.447 57.53ZM345.891 115.068C345.711 115.068 345.562 114.928 345.55 114.748C343.765 88.917 342.12 75.9456 334.785 68.6226C327.451 61.2997 314.459 59.6572 288.589 57.8746C288.408 57.8625 288.268 57.7143 288.268 57.5341C288.268 57.3538 288.408 57.2056 288.589 57.1935C314.459 55.4109 327.451 53.7684 334.785 46.4455C342.12 39.1225 343.765 26.1511 345.55 0.320479C345.562 0.14021 345.711 0 345.891 0C346.072 0 346.22 0.14021 346.232 0.320479C348.018 26.1511 349.663 39.1225 356.997 46.4455C364.331 53.7684 377.323 55.4109 403.194 57.1935C403.374 57.2056 403.515 57.3538 403.515 57.5341C403.515 57.7143 403.374 57.8625 403.194 57.8746C377.323 59.6572 364.331 61.2997 356.997 68.6226C349.663 75.9456 348.018 88.917 346.232 114.748C346.22 114.928 346.072 115.068 345.891 115.068Z" fill="url(#paint4_radial_256_374)"/>
<path d="M293.447 57.53C316.321 59.2166 328.249 61.1234 335.271 68.1339C342.292 75.1444 344.202 87.0542 345.891 109.892C347.58 87.0542 349.49 75.1444 356.511 68.1339C363.533 61.1234 375.461 59.2166 398.335 57.53C375.461 55.8435 363.533 53.9367 356.511 46.9262C349.49 39.9157 347.58 28.0059 345.891 5.16773C344.202 28.0059 342.292 39.9157 335.271 46.9262C328.249 53.9367 316.321 55.8435 293.447 57.53Z" fill="url(#paint5_radial_256_374)"/>
<path d="M62.9534 172.602C85.8271 174.289 97.7554 176.196 104.777 183.206C111.798 190.216 113.708 202.126 115.397 224.964C117.086 202.126 118.996 190.216 126.017 183.206C133.039 176.196 144.967 174.289 167.841 172.602C144.967 170.916 133.039 169.009 126.017 161.998C118.996 154.988 117.086 143.078 115.397 120.24C113.708 143.078 111.798 154.988 104.777 161.998C97.7554 169.009 85.8271 170.916 62.9534 172.602ZM115.397 230.14C115.217 230.14 115.068 230 115.056 229.82C113.271 203.989 111.626 191.018 104.291 183.695C96.957 176.372 83.9654 174.729 58.0946 172.947C57.9141 172.935 57.7736 172.786 57.7736 172.606C57.7736 172.426 57.9141 172.278 58.0946 172.266C83.9654 170.483 96.957 168.841 104.291 161.518C111.626 154.195 113.271 141.223 115.056 115.393C115.068 115.212 115.217 115.072 115.397 115.072C115.578 115.072 115.726 115.212 115.738 115.393C117.524 141.223 119.169 154.195 126.503 161.518C133.837 168.841 146.829 170.483 172.7 172.266C172.88 172.278 173.021 172.426 173.021 172.606C173.021 172.786 172.88 172.935 172.7 172.947C146.829 174.729 133.837 176.372 126.503 183.695C119.169 191.018 117.524 203.989 115.738 229.82C115.726 230 115.578 230.14 115.397 230.14Z" fill="url(#paint6_radial_256_374)"/>
<path d="M62.9534 172.602C85.8271 174.289 97.7554 176.196 104.777 183.206C111.798 190.216 113.708 202.126 115.397 224.964C117.086 202.126 118.996 190.216 126.017 183.206C133.039 176.196 144.967 174.289 167.841 172.602C144.967 170.916 133.039 169.009 126.017 161.998C118.996 154.988 117.086 143.078 115.397 120.24C113.708 143.078 111.798 154.988 104.777 161.998C97.7554 169.009 85.8271 170.916 62.9534 172.602Z" fill="url(#paint7_radial_256_374)"/>
<path d="M178.2 172.602C201.074 174.289 213.002 176.196 220.024 183.206C227.045 190.216 228.955 202.126 230.644 224.964C232.333 202.126 234.243 190.216 241.264 183.206C248.286 176.196 260.214 174.289 283.088 172.602C260.214 170.916 248.286 169.009 241.264 161.998C234.243 154.988 232.333 143.078 230.644 120.24C228.955 143.078 227.045 154.988 220.024 161.998C213.002 169.009 201.074 170.916 178.2 172.602ZM230.644 230.14C230.464 230.14 230.315 230 230.303 229.82C228.518 203.989 226.873 191.018 219.538 183.695C212.204 176.372 199.212 174.729 173.342 172.947C173.161 172.935 173.021 172.786 173.021 172.606C173.021 172.426 173.161 172.278 173.342 172.266C199.212 170.483 212.204 168.841 219.538 161.518C226.873 154.195 228.518 141.223 230.303 115.393C230.315 115.212 230.464 115.072 230.644 115.072C230.825 115.072 230.973 115.212 230.985 115.393C232.771 141.223 234.416 154.195 241.75 161.518C249.084 168.841 262.076 170.483 287.947 172.266C288.127 172.278 288.268 172.426 288.268 172.606C288.268 172.786 288.127 172.935 287.947 172.947C262.076 174.729 249.084 176.372 241.75 183.695C234.416 191.018 232.771 203.989 230.985 229.82C230.973 230 230.825 230.14 230.644 230.14Z" fill="url(#paint8_radial_256_374)"/>
<path d="M178.2 172.602C201.074 174.289 213.002 176.196 220.024 183.206C227.045 190.216 228.955 202.126 230.644 224.964C232.333 202.126 234.243 190.216 241.264 183.206C248.286 176.196 260.214 174.289 283.088 172.602C260.214 170.916 248.286 169.009 241.264 161.998C234.243 154.988 232.333 143.078 230.644 120.24C228.955 143.078 227.045 154.988 220.024 161.998C213.002 169.009 201.074 170.916 178.2 172.602Z" fill="url(#paint9_radial_256_374)"/>
<path d="M293.447 172.602C316.321 174.289 328.249 176.196 335.271 183.206C342.292 190.216 344.202 202.126 345.891 224.964C347.58 202.126 349.49 190.216 356.511 183.206C363.533 176.196 375.461 174.289 398.335 172.602C375.461 170.916 363.533 169.009 356.511 161.998C349.49 154.988 347.58 143.078 345.891 120.24C344.202 143.078 342.292 154.988 335.271 161.998C328.249 169.009 316.321 170.916 293.447 172.602ZM345.891 230.14C345.711 230.14 345.562 230 345.55 229.82C343.765 203.989 342.12 191.018 334.785 183.695C327.451 176.372 314.459 174.729 288.589 172.947C288.408 172.935 288.268 172.786 288.268 172.606C288.268 172.426 288.408 172.278 288.589 172.266C314.459 170.483 327.451 168.841 334.785 161.518C342.12 154.195 343.765 141.223 345.55 115.393C345.562 115.212 345.711 115.072 345.891 115.072C346.072 115.072 346.22 115.212 346.232 115.393C348.018 141.223 349.663 154.195 356.997 161.518C364.331 168.841 377.323 170.483 403.194 172.266C403.374 172.278 403.515 172.426 403.515 172.606C403.515 172.786 403.374 172.935 403.194 172.947C377.323 174.729 364.331 176.372 356.997 183.695C349.663 191.018 348.018 203.989 346.232 229.82C346.22 230 346.072 230.14 345.891 230.14Z" fill="url(#paint10_radial_256_374)"/>
<path d="M293.447 172.602C316.321 174.289 328.249 176.196 335.271 183.206C342.292 190.216 344.202 202.126 345.891 224.964C347.58 202.126 349.49 190.216 356.511 183.206C363.533 176.196 375.461 174.289 398.335 172.602C375.461 170.916 363.533 169.009 356.511 161.998C349.49 154.988 347.58 143.078 345.891 120.24C344.202 143.078 342.292 154.988 335.271 161.998C328.249 169.009 316.321 170.916 293.447 172.602Z" fill="url(#paint11_radial_256_374)"/>
<path d="M62.9534 287.674C85.8271 289.361 97.7554 291.268 104.777 298.278C111.798 305.289 113.708 317.198 115.397 340.037C117.086 317.198 118.996 305.289 126.017 298.278C133.039 291.268 144.967 289.361 167.841 287.674C144.967 285.988 133.039 284.081 126.017 277.07C118.996 270.06 117.086 258.15 115.397 235.312C113.708 258.15 111.798 270.06 104.777 277.07C97.7554 284.081 85.8271 285.988 62.9534 287.674ZM115.397 345.212C115.217 345.212 115.068 345.072 115.056 344.892C113.271 319.061 111.626 306.09 104.291 298.767C96.957 291.444 83.9654 289.801 58.0946 288.019C57.9141 288.007 57.7736 287.859 57.7736 287.678C57.7736 287.498 57.9141 287.35 58.0946 287.338C83.9654 285.555 96.957 283.913 104.291 276.59C111.626 269.267 113.271 256.295 115.056 230.465C115.068 230.284 115.217 230.144 115.397 230.144C115.578 230.144 115.726 230.284 115.738 230.465C117.524 256.295 119.169 269.267 126.503 276.59C133.837 283.913 146.829 285.555 172.7 287.338C172.88 287.35 173.021 287.498 173.021 287.678C173.021 287.859 172.88 288.007 172.7 288.019C146.829 289.801 133.837 291.444 126.503 298.767C119.169 306.09 117.524 319.061 115.738 344.892C115.726 345.072 115.578 345.212 115.397 345.212Z" fill="url(#paint12_radial_256_374)"/>
<path d="M62.9534 287.674C85.8271 289.361 97.7554 291.268 104.777 298.278C111.798 305.289 113.708 317.198 115.397 340.037C117.086 317.198 118.996 305.289 126.017 298.278C133.039 291.268 144.967 289.361 167.841 287.674C144.967 285.988 133.039 284.081 126.017 277.07C118.996 270.06 117.086 258.15 115.397 235.312C113.708 258.15 111.798 270.06 104.777 277.07C97.7554 284.081 85.8271 285.988 62.9534 287.674Z" fill="url(#paint13_radial_256_374)"/>
<path d="M178.2 287.674C201.074 289.361 213.002 291.268 220.024 298.278C227.045 305.289 228.955 317.198 230.644 340.037C232.333 317.198 234.243 305.289 241.264 298.278C248.286 291.268 260.214 289.361 283.088 287.674C260.214 285.988 248.286 284.081 241.264 277.07C234.243 270.06 232.333 258.15 230.644 235.312C228.955 258.15 227.045 270.06 220.024 277.07C213.002 284.081 201.074 285.988 178.2 287.674ZM230.644 345.212C230.464 345.212 230.315 345.072 230.303 344.892C228.518 319.061 226.873 306.09 219.538 298.767C212.204 291.444 199.212 289.801 173.342 288.019C173.161 288.007 173.021 287.859 173.021 287.678C173.021 287.498 173.161 287.35 173.342 287.338C199.212 285.555 212.204 283.913 219.538 276.59C226.873 269.267 228.518 256.295 230.303 230.465C230.315 230.284 230.464 230.144 230.644 230.144C230.825 230.144 230.973 230.284 230.985 230.465C232.771 256.295 234.416 269.267 241.75 276.59C249.084 283.913 262.076 285.555 287.947 287.338C288.127 287.35 288.268 287.498 288.268 287.678C288.268 287.859 288.127 288.007 287.947 288.019C262.076 289.801 249.084 291.444 241.75 298.767C234.416 306.09 232.771 319.061 230.985 344.892C230.973 345.072 230.825 345.212 230.644 345.212Z" fill="url(#paint14_radial_256_374)"/>
<path d="M178.2 287.674C201.074 289.361 213.002 291.268 220.024 298.278C227.045 305.289 228.955 317.198 230.644 340.037C232.333 317.198 234.243 305.289 241.264 298.278C248.286 291.268 260.214 289.361 283.088 287.674C260.214 285.988 248.286 284.081 241.264 277.07C234.243 270.06 232.333 258.15 230.644 235.312C228.955 258.15 227.045 270.06 220.024 277.07C213.002 284.081 201.074 285.988 178.2 287.674Z" fill="url(#paint15_radial_256_374)"/>
<path d="M293.447 287.674C316.321 289.361 328.249 291.268 335.271 298.278C342.292 305.289 344.202 317.198 345.891 340.037C347.58 317.198 349.49 305.289 356.511 298.278C363.533 291.268 375.461 289.361 398.335 287.674C375.461 285.988 363.533 284.081 356.511 277.07C349.49 270.06 347.58 258.15 345.891 235.312C344.202 258.15 342.292 270.06 335.271 277.07C328.249 284.081 316.321 285.988 293.447 287.674ZM345.891 345.212C345.711 345.212 345.562 345.072 345.55 344.892C343.765 319.061 342.12 306.09 334.785 298.767C327.451 291.444 314.459 289.801 288.589 288.019C288.408 288.007 288.268 287.859 288.268 287.678C288.268 287.498 288.408 287.35 288.589 287.338C314.459 285.555 327.451 283.913 334.785 276.59C342.12 269.267 343.765 256.295 345.55 230.465C345.562 230.284 345.711 230.144 345.891 230.144C346.072 230.144 346.22 230.284 346.232 230.465C348.018 256.295 349.663 269.267 356.997 276.59C364.331 283.913 377.323 285.555 403.194 287.338C403.374 287.35 403.515 287.498 403.515 287.678C403.515 287.859 403.374 288.007 403.194 288.019C377.323 289.801 364.331 291.444 356.997 298.767C349.663 306.09 348.018 319.061 346.232 344.892C346.22 345.072 346.072 345.212 345.891 345.212Z" fill="url(#paint16_radial_256_374)"/>
<path d="M293.447 287.674C316.321 289.361 328.249 291.268 335.271 298.278C342.292 305.289 344.202 317.198 345.891 340.037C347.58 317.198 349.49 305.289 356.511 298.278C363.533 291.268 375.461 289.361 398.335 287.674C375.461 285.988 363.533 284.081 356.511 277.07C349.49 270.06 347.58 258.15 345.891 235.312C344.202 258.15 342.292 270.06 335.271 277.07C328.249 284.081 316.321 285.988 293.447 287.674Z" fill="url(#paint17_radial_256_374)"/>
<path d="M62.9534 403.634C85.8271 405.32 97.7554 407.227 104.777 414.238C111.798 421.248 113.708 433.158 115.397 455.996C117.086 433.158 118.996 421.248 126.017 414.238C133.039 407.227 144.967 405.32 167.841 403.634C144.967 401.947 133.039 400.04 126.017 393.03C118.996 386.019 117.086 374.11 115.397 351.271C113.708 374.11 111.798 386.019 104.777 393.03C97.7554 400.04 85.8271 401.947 62.9534 403.634ZM115.397 461.172C115.217 461.172 115.068 461.032 115.056 460.851C113.271 435.021 111.626 422.049 104.291 414.726C96.957 407.403 83.9654 405.761 58.0946 403.978C57.9141 403.966 57.7736 403.818 57.7736 403.638C57.7736 403.458 57.9141 403.309 58.0946 403.297C83.9654 401.515 96.957 399.872 104.291 392.549C111.626 385.226 113.271 372.255 115.056 346.424C115.068 346.244 115.217 346.104 115.397 346.104C115.578 346.104 115.726 346.244 115.738 346.424C117.524 372.255 119.169 385.226 126.503 392.549C133.837 399.872 146.829 401.515 172.7 403.297C172.88 403.309 173.021 403.458 173.021 403.638C173.021 403.818 172.88 403.966 172.7 403.978C146.829 405.761 133.837 407.403 126.503 414.726C119.169 422.049 117.524 435.021 115.738 460.851C115.726 461.032 115.578 461.172 115.397 461.172Z" fill="url(#paint18_radial_256_374)"/>
<path d="M62.9534 403.634C85.8271 405.32 97.7554 407.227 104.777 414.238C111.798 421.248 113.708 433.158 115.397 455.996C117.086 433.158 118.996 421.248 126.017 414.238C133.039 407.227 144.967 405.32 167.841 403.634C144.967 401.947 133.039 400.04 126.017 393.03C118.996 386.019 117.086 374.11 115.397 351.271C113.708 374.11 111.798 386.019 104.777 393.03C97.7554 400.04 85.8271 401.947 62.9534 403.634Z" fill="url(#paint19_radial_256_374)"/>
<path d="M178.2 403.634C201.074 405.32 213.002 407.227 220.024 414.238C227.045 421.248 228.955 433.158 230.644 455.996C232.333 433.158 234.243 421.248 241.264 414.238C248.286 407.227 260.214 405.32 283.088 403.634C260.214 401.947 248.286 400.04 241.264 393.03C234.243 386.019 232.333 374.11 230.644 351.271C228.955 374.11 227.045 386.019 220.024 393.03C213.002 400.04 201.074 401.947 178.2 403.634ZM230.644 461.172C230.464 461.172 230.315 461.032 230.303 460.851C228.518 435.021 226.873 422.049 219.538 414.726C212.204 407.403 199.212 405.761 173.342 403.978C173.161 403.966 173.021 403.818 173.021 403.638C173.021 403.458 173.161 403.309 173.342 403.297C199.212 401.515 212.204 399.872 219.538 392.549C226.873 385.226 228.518 372.255 230.303 346.424C230.315 346.244 230.464 346.104 230.644 346.104C230.825 346.104 230.973 346.244 230.985 346.424C232.771 372.255 234.416 385.226 241.75 392.549C249.084 399.872 262.076 401.515 287.947 403.297C288.127 403.309 288.268 403.458 288.268 403.638C288.268 403.818 288.127 403.966 287.947 403.978C262.076 405.761 249.084 407.403 241.75 414.726C234.416 422.049 232.771 435.021 230.985 460.851C230.973 461.032 230.825 461.172 230.644 461.172Z" fill="url(#paint20_radial_256_374)"/>
<path d="M178.2 403.634C201.074 405.32 213.002 407.227 220.024 414.238C227.045 421.248 228.955 433.158 230.644 455.996C232.333 433.158 234.243 421.248 241.264 414.238C248.286 407.227 260.214 405.32 283.088 403.634C260.214 401.947 248.286 400.04 241.264 393.03C234.243 386.019 232.333 374.11 230.644 351.271C228.955 374.11 227.045 386.019 220.024 393.03C213.002 400.04 201.074 401.947 178.2 403.634Z" fill="url(#paint21_radial_256_374)"/>
<path d="M293.447 403.634C316.321 405.32 328.249 407.227 335.271 414.238C342.292 421.248 344.202 433.158 345.891 455.996C347.58 433.158 349.49 421.248 356.511 414.238C363.533 407.227 375.461 405.32 398.335 403.634C375.461 401.947 363.533 400.04 356.511 393.03C349.49 386.019 347.58 374.11 345.891 351.271C344.202 374.11 342.292 386.019 335.271 393.03C328.249 400.04 316.321 401.947 293.447 403.634ZM345.891 461.172C345.711 461.172 345.562 461.032 345.55 460.851C343.765 435.021 342.12 422.049 334.785 414.726C327.451 407.403 314.459 405.761 288.589 403.978C288.408 403.966 288.268 403.818 288.268 403.638C288.268 403.458 288.408 403.309 288.589 403.297C314.459 401.515 327.451 399.872 334.785 392.549C342.12 385.226 343.765 372.255 345.55 346.424C345.562 346.244 345.711 346.104 345.891 346.104C346.072 346.104 346.22 346.244 346.232 346.424C348.018 372.255 349.663 385.226 356.997 392.549C364.331 399.872 377.323 401.515 403.194 403.297C403.374 403.309 403.515 403.458 403.515 403.638C403.515 403.818 403.374 403.966 403.194 403.978C377.323 405.761 364.331 407.403 356.997 414.726C349.663 422.049 348.018 435.021 346.232 460.851C346.22 461.032 346.072 461.172 345.891 461.172Z" fill="url(#paint22_radial_256_374)"/>
<path d="M293.447 403.634C316.321 405.32 328.249 407.227 335.271 414.238C342.292 421.248 344.202 433.158 345.891 455.996C347.58 433.158 349.49 421.248 356.511 414.238C363.533 407.227 375.461 405.32 398.335 403.634C375.461 401.947 363.533 400.04 356.511 393.03C349.49 386.019 347.58 374.11 345.891 351.271C344.202 374.11 342.292 386.019 335.271 393.03C328.249 400.04 316.321 401.947 293.447 403.634Z" fill="url(#paint23_radial_256_374)"/>
<path d="M62.9534 518.706C85.8271 520.392 97.7554 522.299 104.777 529.31C111.798 536.32 113.708 548.23 115.397 571.068C117.086 548.23 118.996 536.32 126.017 529.31C133.039 522.299 144.967 520.392 167.841 518.706C144.967 517.019 133.039 515.112 126.017 508.102C118.996 501.092 117.086 489.182 115.397 466.344C113.708 489.182 111.798 501.092 104.777 508.102C97.7554 515.112 85.8271 517.019 62.9534 518.706ZM115.397 576.244C115.217 576.244 115.068 576.104 115.056 575.923C113.271 550.093 111.626 537.121 104.291 529.798C96.957 522.476 83.9654 520.833 58.0946 519.05C57.9141 519.038 57.7736 518.89 57.7736 518.71C57.7736 518.53 57.9141 518.381 58.0946 518.369C83.9654 516.587 96.957 514.944 104.291 507.621C111.626 500.298 113.271 487.327 115.056 461.496C115.068 461.316 115.217 461.176 115.397 461.176C115.578 461.176 115.726 461.316 115.738 461.496C117.524 487.327 119.169 500.298 126.503 507.621C133.837 514.944 146.829 516.587 172.7 518.369C172.88 518.381 173.021 518.53 173.021 518.71C173.021 518.89 172.88 519.038 172.7 519.05C146.829 520.833 133.837 522.476 126.503 529.798C119.169 537.121 117.524 550.093 115.738 575.923C115.726 576.104 115.578 576.244 115.397 576.244Z" fill="url(#paint24_radial_256_374)"/>
<path d="M62.9534 518.706C85.8271 520.392 97.7554 522.299 104.777 529.31C111.798 536.32 113.708 548.23 115.397 571.068C117.086 548.23 118.996 536.32 126.017 529.31C133.039 522.299 144.967 520.392 167.841 518.706C144.967 517.019 133.039 515.112 126.017 508.102C118.996 501.092 117.086 489.182 115.397 466.344C113.708 489.182 111.798 501.092 104.777 508.102C97.7554 515.112 85.8271 517.019 62.9534 518.706Z" fill="url(#paint25_radial_256_374)"/>
<path d="M178.2 518.706C201.074 520.392 213.002 522.299 220.024 529.31C227.045 536.32 228.955 548.23 230.644 571.068C232.333 548.23 234.243 536.32 241.264 529.31C248.286 522.299 260.214 520.392 283.088 518.706C260.214 517.019 248.286 515.112 241.264 508.102C234.243 501.092 232.333 489.182 230.644 466.344C228.955 489.182 227.045 501.092 220.024 508.102C213.002 515.112 201.074 517.019 178.2 518.706ZM230.644 576.244C230.464 576.244 230.315 576.104 230.303 575.923C228.518 550.093 226.873 537.121 219.538 529.798C212.204 522.476 199.212 520.833 173.342 519.05C173.161 519.038 173.021 518.89 173.021 518.71C173.021 518.53 173.161 518.381 173.342 518.369C199.212 516.587 212.204 514.944 219.538 507.621C226.873 500.298 228.518 487.327 230.303 461.496C230.315 461.316 230.464 461.176 230.644 461.176C230.825 461.176 230.973 461.316 230.985 461.496C232.771 487.327 234.416 500.298 241.75 507.621C249.084 514.944 262.076 516.587 287.947 518.369C288.127 518.381 288.268 518.53 288.268 518.71C288.268 518.89 288.127 519.038 287.947 519.05C262.076 520.833 249.084 522.476 241.75 529.798C234.416 537.121 232.771 550.093 230.985 575.923C230.973 576.104 230.825 576.244 230.644 576.244Z" fill="url(#paint26_radial_256_374)"/>
<path d="M178.2 518.706C201.074 520.392 213.002 522.299 220.024 529.31C227.045 536.32 228.955 548.23 230.644 571.068C232.333 548.23 234.243 536.32 241.264 529.31C248.286 522.299 260.214 520.392 283.088 518.706C260.214 517.019 248.286 515.112 241.264 508.102C234.243 501.092 232.333 489.182 230.644 466.344C228.955 489.182 227.045 501.092 220.024 508.102C213.002 515.112 201.074 517.019 178.2 518.706Z" fill="url(#paint27_radial_256_374)"/>
<path d="M293.447 518.706C316.321 520.392 328.249 522.299 335.271 529.31C342.292 536.32 344.202 548.23 345.891 571.068C347.58 548.23 349.49 536.32 356.511 529.31C363.533 522.299 375.461 520.392 398.335 518.706C375.461 517.019 363.533 515.112 356.511 508.102C349.49 501.092 347.58 489.182 345.891 466.344C344.202 489.182 342.292 501.092 335.271 508.102C328.249 515.112 316.321 517.019 293.447 518.706ZM345.891 576.244C345.711 576.244 345.562 576.104 345.55 575.923C343.765 550.093 342.12 537.121 334.785 529.798C327.451 522.476 314.459 520.833 288.589 519.05C288.408 519.038 288.268 518.89 288.268 518.71C288.268 518.53 288.408 518.381 288.589 518.369C314.459 516.587 327.451 514.944 334.785 507.621C342.12 500.298 343.765 487.327 345.55 461.496C345.562 461.316 345.711 461.176 345.891 461.176C346.072 461.176 346.22 461.316 346.232 461.496C348.018 487.327 349.663 500.298 356.997 507.621C364.331 514.944 377.323 516.587 403.194 518.369C403.374 518.381 403.515 518.53 403.515 518.71C403.515 518.89 403.374 519.038 403.194 519.05C377.323 520.833 364.331 522.476 356.997 529.798C349.663 537.121 348.018 550.093 346.232 575.923C346.22 576.104 346.072 576.244 345.891 576.244Z" fill="url(#paint28_radial_256_374)"/>
<path d="M293.447 518.706C316.321 520.392 328.249 522.299 335.271 529.31C342.292 536.32 344.202 548.23 345.891 571.068C347.58 548.23 349.49 536.32 356.511 529.31C363.533 522.299 375.461 520.392 398.335 518.706C375.461 517.019 363.533 515.112 356.511 508.102C349.49 501.092 347.58 489.182 345.891 466.344C344.202 489.182 342.292 501.092 335.271 508.102C328.249 515.112 316.321 517.019 293.447 518.706Z" fill="url(#paint29_radial_256_374)"/>
<path d="M62.9534 633.778C85.8271 635.465 97.7554 637.371 104.777 644.382C111.798 651.392 113.708 663.302 115.397 686.14C117.086 663.302 118.996 651.392 126.017 644.382C133.039 637.371 144.967 635.465 167.841 633.778C144.967 632.091 133.039 630.185 126.017 623.174C118.996 616.164 117.086 604.254 115.397 581.416C113.708 604.254 111.798 616.164 104.777 623.174C97.7554 630.185 85.8271 632.091 62.9534 633.778ZM115.397 691.316C115.217 691.316 115.068 691.176 115.056 690.996C113.271 665.165 111.626 652.194 104.291 644.871C96.957 637.548 83.9654 635.905 58.0946 634.122C57.9141 634.11 57.7736 633.962 57.7736 633.782C57.7736 633.602 57.9141 633.453 58.0946 633.441C83.9654 631.659 96.957 630.016 104.291 622.693C111.626 615.37 113.271 602.399 115.056 576.568C115.068 576.388 115.217 576.248 115.397 576.248C115.578 576.248 115.726 576.388 115.738 576.568C117.524 602.399 119.169 615.37 126.503 622.693C133.837 630.016 146.829 631.659 172.7 633.441C172.88 633.453 173.021 633.602 173.021 633.782C173.021 633.962 172.88 634.11 172.7 634.122C146.829 635.905 133.837 637.548 126.503 644.871C119.169 652.194 117.524 665.165 115.738 690.996C115.726 691.176 115.578 691.316 115.397 691.316Z" fill="url(#paint30_radial_256_374)"/>
<path d="M62.9534 633.778C85.8271 635.465 97.7554 637.371 104.777 644.382C111.798 651.392 113.708 663.302 115.397 686.14C117.086 663.302 118.996 651.392 126.017 644.382C133.039 637.371 144.967 635.465 167.841 633.778C144.967 632.091 133.039 630.185 126.017 623.174C118.996 616.164 117.086 604.254 115.397 581.416C113.708 604.254 111.798 616.164 104.777 623.174C97.7554 630.185 85.8271 632.091 62.9534 633.778Z" fill="url(#paint31_radial_256_374)"/>
<path d="M178.2 633.778C201.074 635.465 213.002 637.371 220.024 644.382C227.045 651.392 228.955 663.302 230.644 686.14C232.333 663.302 234.243 651.392 241.264 644.382C248.286 637.371 260.214 635.465 283.088 633.778C260.214 632.091 248.286 630.185 241.264 623.174C234.243 616.164 232.333 604.254 230.644 581.416C228.955 604.254 227.045 616.164 220.024 623.174C213.002 630.185 201.074 632.091 178.2 633.778ZM230.644 691.316C230.464 691.316 230.315 691.176 230.303 690.996C228.518 665.165 226.873 652.194 219.538 644.871C212.204 637.548 199.212 635.905 173.342 634.122C173.161 634.11 173.021 633.962 173.021 633.782C173.021 633.602 173.161 633.453 173.342 633.441C199.212 631.659 212.204 630.016 219.538 622.693C226.873 615.37 228.518 602.399 230.303 576.568C230.315 576.388 230.464 576.248 230.644 576.248C230.825 576.248 230.973 576.388 230.985 576.568C232.771 602.399 234.416 615.37 241.75 622.693C249.084 630.016 262.076 631.659 287.947 633.441C288.127 633.453 288.268 633.602 288.268 633.782C288.268 633.962 288.127 634.11 287.947 634.122C262.076 635.905 249.084 637.548 241.75 644.871C234.416 652.194 232.771 665.165 230.985 690.996C230.973 691.176 230.825 691.316 230.644 691.316Z" fill="url(#paint32_radial_256_374)"/>
<path d="M178.2 633.778C201.074 635.465 213.002 637.371 220.024 644.382C227.045 651.392 228.955 663.302 230.644 686.14C232.333 663.302 234.243 651.392 241.264 644.382C248.286 637.371 260.214 635.465 283.088 633.778C260.214 632.091 248.286 630.185 241.264 623.174C234.243 616.164 232.333 604.254 230.644 581.416C228.955 604.254 227.045 616.164 220.024 623.174C213.002 630.185 201.074 632.091 178.2 633.778Z" fill="url(#paint33_radial_256_374)"/>
<path d="M293.447 633.778C316.321 635.465 328.249 637.371 335.271 644.382C342.292 651.392 344.202 663.302 345.891 686.14C347.58 663.302 349.49 651.392 356.511 644.382C363.533 637.371 375.461 635.465 398.335 633.778C375.461 632.091 363.533 630.185 356.511 623.174C349.49 616.164 347.58 604.254 345.891 581.416C344.202 604.254 342.292 616.164 335.271 623.174C328.249 630.185 316.321 632.091 293.447 633.778ZM345.891 691.316C345.711 691.316 345.562 691.176 345.55 690.996C343.765 665.165 342.12 652.194 334.785 644.871C327.451 637.548 314.459 635.905 288.589 634.122C288.408 634.11 288.268 633.962 288.268 633.782C288.268 633.602 288.408 633.453 288.589 633.441C314.459 631.659 327.451 630.016 334.785 622.693C342.12 615.37 343.765 602.399 345.55 576.568C345.562 576.388 345.711 576.248 345.891 576.248C346.072 576.248 346.22 576.388 346.232 576.568C348.018 602.399 349.663 615.37 356.997 622.693C364.331 630.016 377.323 631.659 403.194 633.441C403.374 633.453 403.515 633.602 403.515 633.782C403.515 633.962 403.374 634.11 403.194 634.122C377.323 635.905 364.331 637.548 356.997 644.871C349.663 652.194 348.018 665.165 346.232 690.996C346.22 691.176 346.072 691.316 345.891 691.316Z" fill="url(#paint34_radial_256_374)"/>
<path d="M293.447 633.778C316.321 635.465 328.249 637.371 335.271 644.382C342.292 651.392 344.202 663.302 345.891 686.14C347.58 663.302 349.49 651.392 356.511 644.382C363.533 637.371 375.461 635.465 398.335 633.778C375.461 632.091 363.533 630.185 356.511 623.174C349.49 616.164 347.58 604.254 345.891 581.416C344.202 604.254 342.292 616.164 335.271 623.174C328.249 630.185 316.321 632.091 293.447 633.778Z" fill="url(#paint35_radial_256_374)"/>
<path d="M5.17978 115.214C28.0534 116.901 39.9818 118.807 47.0032 125.818C54.0245 132.828 55.9344 144.738 57.6235 167.576C59.3126 144.738 61.2225 132.828 68.2438 125.818C75.2652 118.807 87.1936 116.901 110.067 115.214C87.1936 113.527 75.2652 111.621 68.2438 104.61C61.2225 97.5997 59.3126 85.6898 57.6235 62.8517C55.9344 85.6898 54.0245 97.5997 47.0032 104.61C39.9818 111.621 28.0534 113.527 5.17978 115.214ZM57.6235 172.752C57.4429 172.752 57.2945 172.612 57.2825 172.432C55.497 146.601 53.852 133.63 46.5177 126.307C39.1833 118.984 26.1918 117.341 0.320978 115.559C0.140428 115.546 0 115.398 0 115.218C0 115.038 0.140428 114.89 0.320978 114.878C26.1918 113.095 39.1833 111.452 46.5177 104.129C53.852 96.8065 55.497 83.8351 57.2825 58.0044C57.2945 57.8242 57.4429 57.684 57.6235 57.684C57.804 57.684 57.9525 57.8242 57.9645 58.0044C59.75 83.8351 61.395 96.8065 68.7293 104.129C76.0637 111.452 89.0552 113.095 114.926 114.878C115.107 114.89 115.247 115.038 115.247 115.218C115.247 115.398 115.107 115.546 114.926 115.559C89.0552 117.341 76.0637 118.984 68.7293 126.307C61.395 133.63 59.75 146.601 57.9645 172.432C57.9525 172.612 57.804 172.752 57.6235 172.752Z" fill="url(#paint36_radial_256_374)"/>
<path d="M5.17978 115.214C28.0534 116.901 39.9818 118.807 47.0032 125.818C54.0245 132.828 55.9344 144.738 57.6235 167.576C59.3126 144.738 61.2225 132.828 68.2438 125.818C75.2652 118.807 87.1936 116.901 110.067 115.214C87.1936 113.527 75.2652 111.621 68.2438 104.61C61.2225 97.5997 59.3126 85.6898 57.6235 62.8517C55.9344 85.6898 54.0245 97.5997 47.0032 104.61C39.9818 111.621 28.0534 113.527 5.17978 115.214Z" fill="url(#paint37_radial_256_374)"/>
<path d="M120.427 115.214C143.3 116.901 155.229 118.807 162.25 125.818C169.272 132.828 171.181 144.738 172.87 167.576C174.56 144.738 176.469 132.828 183.491 125.818C190.512 118.807 202.441 116.901 225.314 115.214C202.441 113.527 190.512 111.621 183.491 104.61C176.469 97.5997 174.56 85.6898 172.87 62.8517C171.181 85.6898 169.272 97.5997 162.25 104.61C155.229 111.621 143.3 113.527 120.427 115.214ZM172.87 172.752C172.69 172.752 172.541 172.612 172.529 172.432C170.744 146.601 169.099 133.63 161.765 126.307C154.43 118.984 141.439 117.341 115.568 115.559C115.387 115.546 115.247 115.398 115.247 115.218C115.247 115.038 115.387 114.89 115.568 114.878C141.439 113.095 154.43 111.452 161.765 104.129C169.099 96.8065 170.744 83.8351 172.529 58.0044C172.541 57.8242 172.69 57.684 172.87 57.684C173.051 57.684 173.199 57.8242 173.212 58.0044C174.997 83.8351 176.642 96.8065 183.976 104.129C191.311 111.452 204.302 113.095 230.173 114.878C230.354 114.89 230.494 115.038 230.494 115.218C230.494 115.398 230.354 115.546 230.173 115.559C204.302 117.341 191.311 118.984 183.976 126.307C176.642 133.63 174.997 146.601 173.212 172.432C173.199 172.612 173.051 172.752 172.87 172.752Z" fill="url(#paint38_radial_256_374)"/>
<path d="M120.427 115.214C143.3 116.901 155.229 118.807 162.25 125.818C169.272 132.828 171.181 144.738 172.87 167.576C174.56 144.738 176.469 132.828 183.491 125.818C190.512 118.807 202.441 116.901 225.314 115.214C202.441 113.527 190.512 111.621 183.491 104.61C176.469 97.5997 174.56 85.6898 172.87 62.8517C171.181 85.6898 169.272 97.5997 162.25 104.61C155.229 111.621 143.3 113.527 120.427 115.214Z" fill="url(#paint39_radial_256_374)"/>
<path d="M235.674 115.214C258.547 116.901 270.476 118.807 277.497 125.818C284.519 132.828 286.428 144.738 288.117 167.576C289.807 144.738 291.716 132.828 298.738 125.818C305.759 118.807 317.688 116.901 340.561 115.214C317.688 113.527 305.759 111.621 298.738 104.61C291.716 97.5997 289.807 85.6898 288.117 62.8517C286.428 85.6898 284.519 97.5997 277.497 104.61C270.476 111.621 258.547 113.527 235.674 115.214ZM288.117 172.752C287.937 172.752 287.788 172.612 287.776 172.432C285.991 146.601 284.346 133.63 277.012 126.307C269.677 118.984 256.686 117.341 230.815 115.559C230.634 115.546 230.494 115.398 230.494 115.218C230.494 115.038 230.634 114.89 230.815 114.878C256.686 113.095 269.677 111.452 277.012 104.129C284.346 96.8065 285.991 83.8351 287.776 58.0044C287.788 57.8242 287.937 57.684 288.117 57.684C288.298 57.684 288.446 57.8242 288.458 58.0044C290.244 83.8351 291.889 96.8065 299.223 104.129C306.558 111.452 319.549 113.095 345.42 114.878C345.601 114.89 345.741 115.038 345.741 115.218C345.741 115.398 345.601 115.546 345.42 115.559C319.549 117.341 306.558 118.984 299.223 126.307C291.889 133.63 290.244 146.601 288.458 172.432C288.446 172.612 288.298 172.752 288.117 172.752Z" fill="url(#paint40_radial_256_374)"/>
<path d="M235.674 115.214C258.547 116.901 270.476 118.807 277.497 125.818C284.519 132.828 286.428 144.738 288.117 167.576C289.807 144.738 291.716 132.828 298.738 125.818C305.759 118.807 317.688 116.901 340.561 115.214C317.688 113.527 305.759 111.621 298.738 104.61C291.716 97.5997 289.807 85.6898 288.117 62.8517C286.428 85.6898 284.519 97.5997 277.497 104.61C270.476 111.621 258.547 113.527 235.674 115.214Z" fill="url(#paint41_radial_256_374)"/>
<path d="M350.933 115.214C373.806 116.901 385.735 118.807 392.756 125.818C399.778 132.828 401.687 144.738 403.376 167.576C405.066 144.738 406.975 132.828 413.997 125.818C421.018 118.807 432.947 116.901 455.82 115.214C432.947 113.527 421.018 111.621 413.997 104.61C406.975 97.5997 405.066 85.6898 403.376 62.8517C401.687 85.6898 399.778 97.5997 392.756 104.61C385.735 111.621 373.806 113.527 350.933 115.214ZM403.376 172.752C403.196 172.752 403.048 172.612 403.035 172.432C401.25 146.601 399.605 133.63 392.271 126.307C384.936 118.984 371.945 117.341 346.074 115.559C345.893 115.546 345.753 115.398 345.753 115.218C345.753 115.038 345.893 114.89 346.074 114.878C371.945 113.095 384.936 111.452 392.271 104.129C399.605 96.8065 401.25 83.8351 403.035 58.0044C403.048 57.8242 403.196 57.684 403.376 57.684C403.557 57.684 403.706 57.8242 403.718 58.0044C405.503 83.8351 407.148 96.8065 414.482 104.129C421.817 111.452 434.808 113.095 460.679 114.878C460.86 114.89 461 115.038 461 115.218C461 115.398 460.86 115.546 460.679 115.559C434.808 117.341 421.817 118.984 414.482 126.307C407.148 133.63 405.503 146.601 403.718 172.432C403.706 172.612 403.557 172.752 403.376 172.752Z" fill="url(#paint42_radial_256_374)"/>
<path d="M350.933 115.214C373.806 116.901 385.735 118.807 392.756 125.818C399.778 132.828 401.687 144.738 403.376 167.576C405.066 144.738 406.975 132.828 413.997 125.818C421.018 118.807 432.947 116.901 455.82 115.214C432.947 113.527 421.018 111.621 413.997 104.61C406.975 97.5997 405.066 85.6898 403.376 62.8517C401.687 85.6898 399.778 97.5997 392.756 104.61C385.735 111.621 373.806 113.527 350.933 115.214Z" fill="url(#paint43_radial_256_374)"/>
<path d="M5.17978 230.286C28.0534 231.973 39.9818 233.879 47.0032 240.89C54.0245 247.9 55.9344 259.81 57.6235 282.648C59.3126 259.81 61.2225 247.9 68.2438 240.89C75.2652 233.879 87.1936 231.973 110.067 230.286C87.1936 228.6 75.2652 226.693 68.2438 219.682C61.2225 212.672 59.3126 200.762 57.6235 177.924C55.9344 200.762 54.0245 212.672 47.0032 219.682C39.9818 226.693 28.0534 228.6 5.17978 230.286ZM57.6235 287.824C57.4429 287.824 57.2945 287.684 57.2825 287.504C55.497 261.673 53.852 248.702 46.5177 241.379C39.1833 234.056 26.1918 232.413 0.320978 230.631C0.140428 230.619 0 230.47 0 230.29C0 230.11 0.140428 229.962 0.320978 229.95C26.1918 228.167 39.1833 226.524 46.5177 219.202C53.852 211.879 55.497 198.907 57.2825 173.077C57.2945 172.896 57.4429 172.756 57.6235 172.756C57.804 172.756 57.9525 172.896 57.9645 173.077C59.75 198.907 61.395 211.879 68.7293 219.202C76.0637 226.524 89.0552 228.167 114.926 229.95C115.107 229.962 115.247 230.11 115.247 230.29C115.247 230.47 115.107 230.619 114.926 230.631C89.0552 232.413 76.0637 234.056 68.7293 241.379C61.395 248.702 59.75 261.673 57.9645 287.504C57.9525 287.684 57.804 287.824 57.6235 287.824Z" fill="url(#paint44_radial_256_374)"/>
<path d="M5.17978 230.286C28.0534 231.973 39.9818 233.879 47.0032 240.89C54.0245 247.9 55.9344 259.81 57.6235 282.648C59.3126 259.81 61.2225 247.9 68.2438 240.89C75.2652 233.879 87.1936 231.973 110.067 230.286C87.1936 228.6 75.2652 226.693 68.2438 219.682C61.2225 212.672 59.3126 200.762 57.6235 177.924C55.9344 200.762 54.0245 212.672 47.0032 219.682C39.9818 226.693 28.0534 228.6 5.17978 230.286Z" fill="url(#paint45_radial_256_374)"/>
<path d="M120.427 230.286C143.3 231.973 155.229 233.879 162.25 240.89C169.272 247.9 171.181 259.81 172.87 282.648C174.56 259.81 176.469 247.9 183.491 240.89C190.512 233.879 202.441 231.973 225.314 230.286C202.441 228.6 190.512 226.693 183.491 219.682C176.469 212.672 174.56 200.762 172.87 177.924C171.181 200.762 169.272 212.672 162.25 219.682C155.229 226.693 143.3 228.6 120.427 230.286ZM172.87 287.824C172.69 287.824 172.541 287.684 172.529 287.504C170.744 261.673 169.099 248.702 161.765 241.379C154.43 234.056 141.439 232.413 115.568 230.631C115.387 230.619 115.247 230.47 115.247 230.29C115.247 230.11 115.387 229.962 115.568 229.95C141.439 228.167 154.43 226.524 161.765 219.202C169.099 211.879 170.744 198.907 172.529 173.077C172.541 172.896 172.69 172.756 172.87 172.756C173.051 172.756 173.199 172.896 173.212 173.077C174.997 198.907 176.642 211.879 183.976 219.202C191.311 226.524 204.302 228.167 230.173 229.95C230.354 229.962 230.494 230.11 230.494 230.29C230.494 230.47 230.354 230.619 230.173 230.631C204.302 232.413 191.311 234.056 183.976 241.379C176.642 248.702 174.997 261.673 173.212 287.504C173.199 287.684 173.051 287.824 172.87 287.824Z" fill="url(#paint46_radial_256_374)"/>
<path d="M120.427 230.286C143.3 231.973 155.229 233.879 162.25 240.89C169.272 247.9 171.181 259.81 172.87 282.648C174.56 259.81 176.469 247.9 183.491 240.89C190.512 233.879 202.441 231.973 225.314 230.286C202.441 228.6 190.512 226.693 183.491 219.682C176.469 212.672 174.56 200.762 172.87 177.924C171.181 200.762 169.272 212.672 162.25 219.682C155.229 226.693 143.3 228.6 120.427 230.286Z" fill="url(#paint47_radial_256_374)"/>
<path d="M235.674 230.286C258.547 231.973 270.476 233.879 277.497 240.89C284.519 247.9 286.428 259.81 288.117 282.648C289.807 259.81 291.716 247.9 298.738 240.89C305.759 233.879 317.688 231.973 340.561 230.286C317.688 228.6 305.759 226.693 298.738 219.682C291.716 212.672 289.807 200.762 288.117 177.924C286.428 200.762 284.519 212.672 277.497 219.682C270.476 226.693 258.547 228.6 235.674 230.286ZM288.117 287.824C287.937 287.824 287.788 287.684 287.776 287.504C285.991 261.673 284.346 248.702 277.012 241.379C269.677 234.056 256.686 232.413 230.815 230.631C230.634 230.619 230.494 230.47 230.494 230.29C230.494 230.11 230.634 229.962 230.815 229.95C256.686 228.167 269.677 226.524 277.012 219.202C284.346 211.879 285.991 198.907 287.776 173.077C287.788 172.896 287.937 172.756 288.117 172.756C288.298 172.756 288.446 172.896 288.458 173.077C290.244 198.907 291.889 211.879 299.223 219.202C306.558 226.524 319.549 228.167 345.42 229.95C345.601 229.962 345.741 230.11 345.741 230.29C345.741 230.47 345.601 230.619 345.42 230.631C319.549 232.413 306.558 234.056 299.223 241.379C291.889 248.702 290.244 261.673 288.458 287.504C288.446 287.684 288.298 287.824 288.117 287.824Z" fill="url(#paint48_radial_256_374)"/>
<path d="M235.674 230.286C258.547 231.973 270.476 233.879 277.497 240.89C284.519 247.9 286.428 259.81 288.117 282.648C289.807 259.81 291.716 247.9 298.738 240.89C305.759 233.879 317.688 231.973 340.561 230.286C317.688 228.6 305.759 226.693 298.738 219.682C291.716 212.672 289.807 200.762 288.117 177.924C286.428 200.762 284.519 212.672 277.497 219.682C270.476 226.693 258.547 228.6 235.674 230.286Z" fill="url(#paint49_radial_256_374)"/>
<path d="M350.933 230.286C373.806 231.973 385.735 233.879 392.756 240.89C399.778 247.9 401.687 259.81 403.376 282.648C405.066 259.81 406.975 247.9 413.997 240.89C421.018 233.879 432.947 231.973 455.82 230.286C432.947 228.6 421.018 226.693 413.997 219.682C406.975 212.672 405.066 200.762 403.376 177.924C401.687 200.762 399.778 212.672 392.756 219.682C385.735 226.693 373.806 228.6 350.933 230.286ZM403.376 287.824C403.196 287.824 403.048 287.684 403.035 287.504C401.25 261.673 399.605 248.702 392.271 241.379C384.936 234.056 371.945 232.413 346.074 230.631C345.893 230.619 345.753 230.47 345.753 230.29C345.753 230.11 345.893 229.962 346.074 229.95C371.945 228.167 384.936 226.524 392.271 219.202C399.605 211.879 401.25 198.907 403.035 173.077C403.048 172.896 403.196 172.756 403.376 172.756C403.557 172.756 403.706 172.896 403.718 173.077C405.503 198.907 407.148 211.879 414.482 219.202C421.817 226.524 434.808 228.167 460.679 229.95C460.86 229.962 461 230.11 461 230.29C461 230.47 460.86 230.619 460.679 230.631C434.808 232.413 421.817 234.056 414.482 241.379C407.148 248.702 405.503 261.673 403.718 287.504C403.706 287.684 403.557 287.824 403.376 287.824Z" fill="url(#paint50_radial_256_374)"/>
<path d="M350.933 230.286C373.806 231.973 385.735 233.879 392.756 240.89C399.778 247.9 401.687 259.81 403.376 282.648C405.066 259.81 406.975 247.9 413.997 240.89C421.018 233.879 432.947 231.973 455.82 230.286C432.947 228.6 421.018 226.693 413.997 219.682C406.975 212.672 405.066 200.762 403.376 177.924C401.687 200.762 399.778 212.672 392.756 219.682C385.735 226.693 373.806 228.6 350.933 230.286Z" fill="url(#paint51_radial_256_374)"/>
<path d="M5.17978 345.358C28.0534 347.045 39.9818 348.952 47.0032 355.962C54.0245 362.973 55.9344 374.882 57.6235 397.72C59.3126 374.882 61.2225 362.973 68.2438 355.962C75.2652 348.952 87.1936 347.045 110.067 345.358C87.1936 343.672 75.2652 341.765 68.2438 334.754C61.2225 327.744 59.3126 315.834 57.6235 292.996C55.9344 315.834 54.0245 327.744 47.0032 334.754C39.9818 341.765 28.0534 343.672 5.17978 345.358ZM57.6235 402.896C57.4429 402.896 57.2945 402.756 57.2825 402.576C55.497 376.745 53.852 363.774 46.5177 356.451C39.1833 349.128 26.1918 347.485 0.320978 345.703C0.140428 345.691 0 345.542 0 345.362C0 345.182 0.140428 345.034 0.320978 345.022C26.1918 343.239 39.1833 341.597 46.5177 334.274C53.852 326.951 55.497 313.979 57.2825 288.149C57.2945 287.968 57.4429 287.828 57.6235 287.828C57.804 287.828 57.9525 287.968 57.9645 288.149C59.75 313.979 61.395 326.951 68.7293 334.274C76.0637 341.597 89.0552 343.239 114.926 345.022C115.107 345.034 115.247 345.182 115.247 345.362C115.247 345.542 115.107 345.691 114.926 345.703C89.0552 347.485 76.0637 349.128 68.7293 356.451C61.395 363.774 59.75 376.745 57.9645 402.576C57.9525 402.756 57.804 402.896 57.6235 402.896Z" fill="url(#paint52_radial_256_374)"/>
<path d="M5.17978 345.358C28.0534 347.045 39.9818 348.952 47.0032 355.962C54.0245 362.973 55.9344 374.882 57.6235 397.72C59.3126 374.882 61.2225 362.973 68.2438 355.962C75.2652 348.952 87.1936 347.045 110.067 345.358C87.1936 343.672 75.2652 341.765 68.2438 334.754C61.2225 327.744 59.3126 315.834 57.6235 292.996C55.9344 315.834 54.0245 327.744 47.0032 334.754C39.9818 341.765 28.0534 343.672 5.17978 345.358Z" fill="url(#paint53_radial_256_374)"/>
<path d="M120.427 345.358C143.3 347.045 155.229 348.952 162.25 355.962C169.272 362.973 171.181 374.882 172.87 397.72C174.56 374.882 176.469 362.973 183.491 355.962C190.512 348.952 202.441 347.045 225.314 345.358C202.441 343.672 190.512 341.765 183.491 334.754C176.469 327.744 174.56 315.834 172.87 292.996C171.181 315.834 169.272 327.744 162.25 334.754C155.229 341.765 143.3 343.672 120.427 345.358ZM172.87 402.896C172.69 402.896 172.541 402.756 172.529 402.576C170.744 376.745 169.099 363.774 161.765 356.451C154.43 349.128 141.439 347.485 115.568 345.703C115.387 345.691 115.247 345.542 115.247 345.362C115.247 345.182 115.387 345.034 115.568 345.022C141.439 343.239 154.43 341.597 161.765 334.274C169.099 326.951 170.744 313.979 172.529 288.149C172.541 287.968 172.69 287.828 172.87 287.828C173.051 287.828 173.199 287.968 173.212 288.149C174.997 313.979 176.642 326.951 183.976 334.274C191.311 341.597 204.302 343.239 230.173 345.022C230.354 345.034 230.494 345.182 230.494 345.362C230.494 345.542 230.354 345.691 230.173 345.703C204.302 347.485 191.311 349.128 183.976 356.451C176.642 363.774 174.997 376.745 173.212 402.576C173.199 402.756 173.051 402.896 172.87 402.896Z" fill="url(#paint54_radial_256_374)"/>
<path d="M120.427 345.358C143.3 347.045 155.229 348.952 162.25 355.962C169.272 362.973 171.181 374.882 172.87 397.72C174.56 374.882 176.469 362.973 183.491 355.962C190.512 348.952 202.441 347.045 225.314 345.358C202.441 343.672 190.512 341.765 183.491 334.754C176.469 327.744 174.56 315.834 172.87 292.996C171.181 315.834 169.272 327.744 162.25 334.754C155.229 341.765 143.3 343.672 120.427 345.358Z" fill="url(#paint55_radial_256_374)"/>
<path d="M235.674 345.358C258.547 347.045 270.476 348.952 277.497 355.962C284.519 362.973 286.428 374.882 288.117 397.72C289.807 374.882 291.716 362.973 298.738 355.962C305.759 348.952 317.688 347.045 340.561 345.358C317.688 343.672 305.759 341.765 298.738 334.754C291.716 327.744 289.807 315.834 288.117 292.996C286.428 315.834 284.519 327.744 277.497 334.754C270.476 341.765 258.547 343.672 235.674 345.358ZM288.117 402.896C287.937 402.896 287.788 402.756 287.776 402.576C285.991 376.745 284.346 363.774 277.012 356.451C269.677 349.128 256.686 347.485 230.815 345.703C230.634 345.691 230.494 345.542 230.494 345.362C230.494 345.182 230.634 345.034 230.815 345.022C256.686 343.239 269.677 341.597 277.012 334.274C284.346 326.951 285.991 313.979 287.776 288.149C287.788 287.968 287.937 287.828 288.117 287.828C288.298 287.828 288.446 287.968 288.458 288.149C290.244 313.979 291.889 326.951 299.223 334.274C306.558 341.597 319.549 343.239 345.42 345.022C345.601 345.034 345.741 345.182 345.741 345.362C345.741 345.542 345.601 345.691 345.42 345.703C319.549 347.485 306.558 349.128 299.223 356.451C291.889 363.774 290.244 376.745 288.458 402.576C288.446 402.756 288.298 402.896 288.117 402.896Z" fill="url(#paint56_radial_256_374)"/>
<path d="M235.674 345.358C258.547 347.045 270.476 348.952 277.497 355.962C284.519 362.973 286.428 374.882 288.117 397.72C289.807 374.882 291.716 362.973 298.738 355.962C305.759 348.952 317.688 347.045 340.561 345.358C317.688 343.672 305.759 341.765 298.738 334.754C291.716 327.744 289.807 315.834 288.117 292.996C286.428 315.834 284.519 327.744 277.497 334.754C270.476 341.765 258.547 343.672 235.674 345.358Z" fill="url(#paint57_radial_256_374)"/>
<path d="M350.933 345.358C373.806 347.045 385.735 348.952 392.756 355.962C399.778 362.973 401.687 374.882 403.376 397.72C405.066 374.882 406.975 362.973 413.997 355.962C421.018 348.952 432.947 347.045 455.82 345.358C432.947 343.672 421.018 341.765 413.997 334.754C406.975 327.744 405.066 315.834 403.376 292.996C401.687 315.834 399.778 327.744 392.756 334.754C385.735 341.765 373.806 343.672 350.933 345.358ZM403.376 402.896C403.196 402.896 403.048 402.756 403.035 402.576C401.25 376.745 399.605 363.774 392.271 356.451C384.936 349.128 371.945 347.485 346.074 345.703C345.893 345.691 345.753 345.542 345.753 345.362C345.753 345.182 345.893 345.034 346.074 345.022C371.945 343.239 384.936 341.597 392.271 334.274C399.605 326.951 401.25 313.979 403.035 288.149C403.048 287.968 403.196 287.828 403.376 287.828C403.557 287.828 403.706 287.968 403.718 288.149C405.503 313.979 407.148 326.951 414.482 334.274C421.817 341.597 434.808 343.239 460.679 345.022C460.86 345.034 461 345.182 461 345.362C461 345.542 460.86 345.691 460.679 345.703C434.808 347.485 421.817 349.128 414.482 356.451C407.148 363.774 405.503 376.745 403.718 402.576C403.706 402.756 403.557 402.896 403.376 402.896Z" fill="url(#paint58_radial_256_374)"/>
<path d="M350.933 345.358C373.806 347.045 385.735 348.952 392.756 355.962C399.778 362.973 401.687 374.882 403.376 397.72C405.066 374.882 406.975 362.973 413.997 355.962C421.018 348.952 432.947 347.045 455.82 345.358C432.947 343.672 421.018 341.765 413.997 334.754C406.975 327.744 405.066 315.834 403.376 292.996C401.687 315.834 399.778 327.744 392.756 334.754C385.735 341.765 373.806 343.672 350.933 345.358Z" fill="url(#paint59_radial_256_374)"/>
<path d="M5.17978 461.318C28.0534 463.004 39.9818 464.911 47.0032 471.922C54.0245 478.932 55.9344 490.842 57.6235 513.68C59.3126 490.842 61.2225 478.932 68.2438 471.922C75.2652 464.911 87.1936 463.004 110.067 461.318C87.1936 459.631 75.2652 457.724 68.2438 450.714C61.2225 443.703 59.3126 431.794 57.6235 408.955C55.9344 431.794 54.0245 443.703 47.0032 450.714C39.9818 457.724 28.0534 459.631 5.17978 461.318ZM57.6235 518.856C57.4429 518.856 57.2945 518.716 57.2825 518.535C55.497 492.705 53.852 479.733 46.5177 472.41C39.1833 465.087 26.1918 463.445 0.320978 461.662C0.140428 461.65 0 461.502 0 461.322C0 461.142 0.140428 460.993 0.320978 460.981C26.1918 459.199 39.1833 457.556 46.5177 450.233C53.852 442.91 55.497 429.939 57.2825 404.108C57.2945 403.928 57.4429 403.788 57.6235 403.788C57.804 403.788 57.9525 403.928 57.9645 404.108C59.75 429.939 61.395 442.91 68.7293 450.233C76.0637 457.556 89.0552 459.199 114.926 460.981C115.107 460.993 115.247 461.142 115.247 461.322C115.247 461.502 115.107 461.65 114.926 461.662C89.0552 463.445 76.0637 465.087 68.7293 472.41C61.395 479.733 59.75 492.705 57.9645 518.535C57.9525 518.716 57.804 518.856 57.6235 518.856Z" fill="url(#paint60_radial_256_374)"/>
<path d="M5.17978 461.318C28.0534 463.004 39.9818 464.911 47.0032 471.922C54.0245 478.932 55.9344 490.842 57.6235 513.68C59.3126 490.842 61.2225 478.932 68.2438 471.922C75.2652 464.911 87.1936 463.004 110.067 461.318C87.1936 459.631 75.2652 457.724 68.2438 450.714C61.2225 443.703 59.3126 431.794 57.6235 408.955C55.9344 431.794 54.0245 443.703 47.0032 450.714C39.9818 457.724 28.0534 459.631 5.17978 461.318Z" fill="url(#paint61_radial_256_374)"/>
<path d="M120.427 461.318C143.3 463.004 155.229 464.911 162.25 471.922C169.272 478.932 171.181 490.842 172.87 513.68C174.56 490.842 176.469 478.932 183.491 471.922C190.512 464.911 202.441 463.004 225.314 461.318C202.441 459.631 190.512 457.724 183.491 450.714C176.469 443.703 174.56 431.794 172.87 408.955C171.181 431.794 169.272 443.703 162.25 450.714C155.229 457.724 143.3 459.631 120.427 461.318ZM172.87 518.856C172.69 518.856 172.541 518.716 172.529 518.535C170.744 492.705 169.099 479.733 161.765 472.41C154.43 465.087 141.439 463.445 115.568 461.662C115.387 461.65 115.247 461.502 115.247 461.322C115.247 461.142 115.387 460.993 115.568 460.981C141.439 459.199 154.43 457.556 161.765 450.233C169.099 442.91 170.744 429.939 172.529 404.108C172.541 403.928 172.69 403.788 172.87 403.788C173.051 403.788 173.199 403.928 173.212 404.108C174.997 429.939 176.642 442.91 183.976 450.233C191.311 457.556 204.302 459.199 230.173 460.981C230.354 460.993 230.494 461.142 230.494 461.322C230.494 461.502 230.354 461.65 230.173 461.662C204.302 463.445 191.311 465.087 183.976 472.41C176.642 479.733 174.997 492.705 173.212 518.535C173.199 518.716 173.051 518.856 172.87 518.856Z" fill="url(#paint62_radial_256_374)"/>
<path d="M120.427 461.318C143.3 463.004 155.229 464.911 162.25 471.922C169.272 478.932 171.181 490.842 172.87 513.68C174.56 490.842 176.469 478.932 183.491 471.922C190.512 464.911 202.441 463.004 225.314 461.318C202.441 459.631 190.512 457.724 183.491 450.714C176.469 443.703 174.56 431.794 172.87 408.955C171.181 431.794 169.272 443.703 162.25 450.714C155.229 457.724 143.3 459.631 120.427 461.318Z" fill="url(#paint63_radial_256_374)"/>
<path d="M235.674 461.318C258.547 463.004 270.476 464.911 277.497 471.922C284.519 478.932 286.428 490.842 288.117 513.68C289.807 490.842 291.716 478.932 298.738 471.922C305.759 464.911 317.688 463.004 340.561 461.318C317.688 459.631 305.759 457.724 298.738 450.714C291.716 443.703 289.807 431.794 288.117 408.955C286.428 431.794 284.519 443.703 277.497 450.714C270.476 457.724 258.547 459.631 235.674 461.318ZM288.117 518.856C287.937 518.856 287.788 518.716 287.776 518.535C285.991 492.705 284.346 479.733 277.012 472.41C269.677 465.087 256.686 463.445 230.815 461.662C230.634 461.65 230.494 461.502 230.494 461.322C230.494 461.142 230.634 460.993 230.815 460.981C256.686 459.199 269.677 457.556 277.012 450.233C284.346 442.91 285.991 429.939 287.776 404.108C287.788 403.928 287.937 403.788 288.117 403.788C288.298 403.788 288.446 403.928 288.458 404.108C290.244 429.939 291.889 442.91 299.223 450.233C306.558 457.556 319.549 459.199 345.42 460.981C345.601 460.993 345.741 461.142 345.741 461.322C345.741 461.502 345.601 461.65 345.42 461.662C319.549 463.445 306.558 465.087 299.223 472.41C291.889 479.733 290.244 492.705 288.458 518.535C288.446 518.716 288.298 518.856 288.117 518.856Z" fill="url(#paint64_radial_256_374)"/>
<path d="M235.674 461.318C258.547 463.004 270.476 464.911 277.497 471.922C284.519 478.932 286.428 490.842 288.117 513.68C289.807 490.842 291.716 478.932 298.738 471.922C305.759 464.911 317.688 463.004 340.561 461.318C317.688 459.631 305.759 457.724 298.738 450.714C291.716 443.703 289.807 431.794 288.117 408.955C286.428 431.794 284.519 443.703 277.497 450.714C270.476 457.724 258.547 459.631 235.674 461.318Z" fill="url(#paint65_radial_256_374)"/>
<path d="M350.933 461.318C373.806 463.004 385.735 464.911 392.756 471.922C399.778 478.932 401.687 490.842 403.376 513.68C405.066 490.842 406.975 478.932 413.997 471.922C421.018 464.911 432.947 463.004 455.82 461.318C432.947 459.631 421.018 457.724 413.997 450.714C406.975 443.703 405.066 431.794 403.376 408.955C401.687 431.794 399.778 443.703 392.756 450.714C385.735 457.724 373.806 459.631 350.933 461.318ZM403.376 518.856C403.196 518.856 403.048 518.716 403.035 518.535C401.25 492.705 399.605 479.733 392.271 472.41C384.936 465.087 371.945 463.445 346.074 461.662C345.893 461.65 345.753 461.502 345.753 461.322C345.753 461.142 345.893 460.993 346.074 460.981C371.945 459.199 384.936 457.556 392.271 450.233C399.605 442.91 401.25 429.939 403.035 404.108C403.048 403.928 403.196 403.788 403.376 403.788C403.557 403.788 403.706 403.928 403.718 404.108C405.503 429.939 407.148 442.91 414.482 450.233C421.817 457.556 434.808 459.199 460.679 460.981C460.86 460.993 461 461.142 461 461.322C461 461.502 460.86 461.65 460.679 461.662C434.808 463.445 421.817 465.087 414.482 472.41C407.148 479.733 405.503 492.705 403.718 518.535C403.706 518.716 403.557 518.856 403.376 518.856Z" fill="url(#paint66_radial_256_374)"/>
<path d="M350.933 461.318C373.806 463.004 385.735 464.911 392.756 471.922C399.778 478.932 401.687 490.842 403.376 513.68C405.066 490.842 406.975 478.932 413.997 471.922C421.018 464.911 432.947 463.004 455.82 461.318C432.947 459.631 421.018 457.724 413.997 450.714C406.975 443.703 405.066 431.794 403.376 408.955C401.687 431.794 399.778 443.703 392.756 450.714C385.735 457.724 373.806 459.631 350.933 461.318Z" fill="url(#paint67_radial_256_374)"/>
<path d="M5.17978 576.39C28.0534 578.076 39.9818 579.983 47.0032 586.994C54.0245 594.004 55.9344 605.914 57.6235 628.752C59.3126 605.914 61.2225 594.004 68.2438 586.994C75.2652 579.983 87.1936 578.076 110.067 576.39C87.1936 574.703 75.2652 572.796 68.2438 565.786C61.2225 558.776 59.3126 546.866 57.6235 524.028C55.9344 546.866 54.0245 558.776 47.0032 565.786C39.9818 572.796 28.0534 574.703 5.17978 576.39ZM57.6235 633.928C57.4429 633.928 57.2945 633.788 57.2825 633.607C55.497 607.777 53.852 594.805 46.5177 587.482C39.1833 580.159 26.1918 578.517 0.320978 576.734C0.140428 576.722 0 576.574 0 576.394C0 576.214 0.140428 576.065 0.320978 576.053C26.1918 574.271 39.1833 572.628 46.5177 565.305C53.852 557.982 55.497 545.011 57.2825 519.18C57.2945 519 57.4429 518.86 57.6235 518.86C57.804 518.86 57.9525 519 57.9645 519.18C59.75 545.011 61.395 557.982 68.7293 565.305C76.0637 572.628 89.0552 574.271 114.926 576.053C115.107 576.065 115.247 576.214 115.247 576.394C115.247 576.574 115.107 576.722 114.926 576.734C89.0552 578.517 76.0637 580.159 68.7293 587.482C61.395 594.805 59.75 607.777 57.9645 633.607C57.9525 633.788 57.804 633.928 57.6235 633.928Z" fill="url(#paint68_radial_256_374)"/>
<path d="M5.17978 576.39C28.0534 578.076 39.9818 579.983 47.0032 586.994C54.0245 594.004 55.9344 605.914 57.6235 628.752C59.3126 605.914 61.2225 594.004 68.2438 586.994C75.2652 579.983 87.1936 578.076 110.067 576.39C87.1936 574.703 75.2652 572.796 68.2438 565.786C61.2225 558.776 59.3126 546.866 57.6235 524.028C55.9344 546.866 54.0245 558.776 47.0032 565.786C39.9818 572.796 28.0534 574.703 5.17978 576.39Z" fill="url(#paint69_radial_256_374)"/>
<path d="M120.427 576.39C143.3 578.076 155.229 579.983 162.25 586.994C169.272 594.004 171.181 605.914 172.87 628.752C174.56 605.914 176.469 594.004 183.491 586.994C190.512 579.983 202.441 578.076 225.314 576.39C202.441 574.703 190.512 572.796 183.491 565.786C176.469 558.776 174.56 546.866 172.87 524.028C171.181 546.866 169.272 558.776 162.25 565.786C155.229 572.796 143.3 574.703 120.427 576.39ZM172.87 633.928C172.69 633.928 172.541 633.788 172.529 633.607C170.744 607.777 169.099 594.805 161.765 587.482C154.43 580.159 141.439 578.517 115.568 576.734C115.387 576.722 115.247 576.574 115.247 576.394C115.247 576.214 115.387 576.065 115.568 576.053C141.439 574.271 154.43 572.628 161.765 565.305C169.099 557.982 170.744 545.011 172.529 519.18C172.541 519 172.69 518.86 172.87 518.86C173.051 518.86 173.199 519 173.212 519.18C174.997 545.011 176.642 557.982 183.976 565.305C191.311 572.628 204.302 574.271 230.173 576.053C230.354 576.065 230.494 576.214 230.494 576.394C230.494 576.574 230.354 576.722 230.173 576.734C204.302 578.517 191.311 580.159 183.976 587.482C176.642 594.805 174.997 607.777 173.212 633.607C173.199 633.788 173.051 633.928 172.87 633.928Z" fill="url(#paint70_radial_256_374)"/>
<path d="M120.427 576.39C143.3 578.076 155.229 579.983 162.25 586.994C169.272 594.004 171.181 605.914 172.87 628.752C174.56 605.914 176.469 594.004 183.491 586.994C190.512 579.983 202.441 578.076 225.314 576.39C202.441 574.703 190.512 572.796 183.491 565.786C176.469 558.776 174.56 546.866 172.87 524.028C171.181 546.866 169.272 558.776 162.25 565.786C155.229 572.796 143.3 574.703 120.427 576.39Z" fill="url(#paint71_radial_256_374)"/>
<path d="M235.674 576.39C258.547 578.076 270.476 579.983 277.497 586.994C284.519 594.004 286.428 605.914 288.117 628.752C289.807 605.914 291.716 594.004 298.738 586.994C305.759 579.983 317.688 578.076 340.561 576.39C317.688 574.703 305.759 572.796 298.738 565.786C291.716 558.776 289.807 546.866 288.117 524.028C286.428 546.866 284.519 558.776 277.497 565.786C270.476 572.796 258.547 574.703 235.674 576.39ZM288.117 633.928C287.937 633.928 287.788 633.788 287.776 633.607C285.991 607.777 284.346 594.805 277.012 587.482C269.677 580.159 256.686 578.517 230.815 576.734C230.634 576.722 230.494 576.574 230.494 576.394C230.494 576.214 230.634 576.065 230.815 576.053C256.686 574.271 269.677 572.628 277.012 565.305C284.346 557.982 285.991 545.011 287.776 519.18C287.788 519 287.937 518.86 288.117 518.86C288.298 518.86 288.446 519 288.458 519.18C290.244 545.011 291.889 557.982 299.223 565.305C306.558 572.628 319.549 574.271 345.42 576.053C345.601 576.065 345.741 576.214 345.741 576.394C345.741 576.574 345.601 576.722 345.42 576.734C319.549 578.517 306.558 580.159 299.223 587.482C291.889 594.805 290.244 607.777 288.458 633.607C288.446 633.788 288.298 633.928 288.117 633.928Z" fill="url(#paint72_radial_256_374)"/>
<path d="M235.674 576.39C258.547 578.076 270.476 579.983 277.497 586.994C284.519 594.004 286.428 605.914 288.117 628.752C289.807 605.914 291.716 594.004 298.738 586.994C305.759 579.983 317.688 578.076 340.561 576.39C317.688 574.703 305.759 572.796 298.738 565.786C291.716 558.776 289.807 546.866 288.117 524.028C286.428 546.866 284.519 558.776 277.497 565.786C270.476 572.796 258.547 574.703 235.674 576.39Z" fill="url(#paint73_radial_256_374)"/>
<path d="M350.933 576.39C373.806 578.076 385.735 579.983 392.756 586.994C399.778 594.004 401.687 605.914 403.376 628.752C405.066 605.914 406.975 594.004 413.997 586.994C421.018 579.983 432.947 578.076 455.82 576.39C432.947 574.703 421.018 572.796 413.997 565.786C406.975 558.776 405.066 546.866 403.376 524.028C401.687 546.866 399.778 558.776 392.756 565.786C385.735 572.796 373.806 574.703 350.933 576.39ZM403.376 633.928C403.196 633.928 403.048 633.788 403.035 633.607C401.25 607.777 399.605 594.805 392.271 587.482C384.936 580.159 371.945 578.517 346.074 576.734C345.893 576.722 345.753 576.574 345.753 576.394C345.753 576.214 345.893 576.065 346.074 576.053C371.945 574.271 384.936 572.628 392.271 565.305C399.605 557.982 401.25 545.011 403.035 519.18C403.048 519 403.196 518.86 403.376 518.86C403.557 518.86 403.706 519 403.718 519.18C405.503 545.011 407.148 557.982 414.482 565.305C421.817 572.628 434.808 574.271 460.679 576.053C460.86 576.065 461 576.214 461 576.394C461 576.574 460.86 576.722 460.679 576.734C434.808 578.517 421.817 580.159 414.482 587.482C407.148 594.805 405.503 607.777 403.718 633.607C403.706 633.788 403.557 633.928 403.376 633.928Z" fill="url(#paint74_radial_256_374)"/>
<path d="M350.933 576.39C373.806 578.076 385.735 579.983 392.756 586.994C399.778 594.004 401.687 605.914 403.376 628.752C405.066 605.914 406.975 594.004 413.997 586.994C421.018 579.983 432.947 578.076 455.82 576.39C432.947 574.703 421.018 572.796 413.997 565.786C406.975 558.776 405.066 546.866 403.376 524.028C401.687 546.866 399.778 558.776 392.756 565.786C385.735 572.796 373.806 574.703 350.933 576.39Z" fill="url(#paint75_radial_256_374)"/>
<path d="M5.17978 691.462C28.0534 693.148 39.9818 695.055 47.0032 702.066C54.0245 709.076 55.9344 720.986 57.6235 743.824C59.3126 720.986 61.2225 709.076 68.2438 702.066C75.2652 695.055 87.1936 693.148 110.067 691.462C87.1936 689.775 75.2652 687.869 68.2438 680.858C61.2225 673.848 59.3126 661.938 57.6235 639.1C55.9344 661.938 54.0245 673.848 47.0032 680.858C39.9818 687.869 28.0534 689.775 5.17978 691.462ZM57.6235 749C57.4429 749 57.2945 748.86 57.2825 748.68C55.497 722.849 53.852 709.878 46.5177 702.555C39.1833 695.232 26.1918 693.589 0.320978 691.806C0.140428 691.794 0 691.646 0 691.466C0 691.286 0.140428 691.137 0.320978 691.125C26.1918 689.343 39.1833 687.7 46.5177 680.377C53.852 673.054 55.497 660.083 57.2825 634.252C57.2945 634.072 57.4429 633.932 57.6235 633.932C57.804 633.932 57.9525 634.072 57.9645 634.252C59.75 660.083 61.395 673.054 68.7293 680.377C76.0637 687.7 89.0552 689.343 114.926 691.125C115.107 691.137 115.247 691.286 115.247 691.466C115.247 691.646 115.107 691.794 114.926 691.806C89.0552 693.589 76.0637 695.232 68.7293 702.555C61.395 709.878 59.75 722.849 57.9645 748.68C57.9525 748.86 57.804 749 57.6235 749Z" fill="url(#paint76_radial_256_374)"/>
<path d="M5.17978 691.462C28.0534 693.148 39.9818 695.055 47.0032 702.066C54.0245 709.076 55.9344 720.986 57.6235 743.824C59.3126 720.986 61.2225 709.076 68.2438 702.066C75.2652 695.055 87.1936 693.148 110.067 691.462C87.1936 689.775 75.2652 687.869 68.2438 680.858C61.2225 673.848 59.3126 661.938 57.6235 639.1C55.9344 661.938 54.0245 673.848 47.0032 680.858C39.9818 687.869 28.0534 689.775 5.17978 691.462Z" fill="url(#paint77_radial_256_374)"/>
<path d="M120.427 691.462C143.3 693.148 155.229 695.055 162.25 702.066C169.272 709.076 171.181 720.986 172.87 743.824C174.56 720.986 176.469 709.076 183.491 702.066C190.512 695.055 202.441 693.148 225.314 691.462C202.441 689.775 190.512 687.869 183.491 680.858C176.469 673.848 174.56 661.938 172.87 639.1C171.181 661.938 169.272 673.848 162.25 680.858C155.229 687.869 143.3 689.775 120.427 691.462ZM172.87 749C172.69 749 172.541 748.86 172.529 748.68C170.744 722.849 169.099 709.878 161.765 702.555C154.43 695.232 141.439 693.589 115.568 691.806C115.387 691.794 115.247 691.646 115.247 691.466C115.247 691.286 115.387 691.137 115.568 691.125C141.439 689.343 154.43 687.7 161.765 680.377C169.099 673.054 170.744 660.083 172.529 634.252C172.541 634.072 172.69 633.932 172.87 633.932C173.051 633.932 173.199 634.072 173.212 634.252C174.997 660.083 176.642 673.054 183.976 680.377C191.311 687.7 204.302 689.343 230.173 691.125C230.354 691.137 230.494 691.286 230.494 691.466C230.494 691.646 230.354 691.794 230.173 691.806C204.302 693.589 191.311 695.232 183.976 702.555C176.642 709.878 174.997 722.849 173.212 748.68C173.199 748.86 173.051 749 172.87 749Z" fill="url(#paint78_radial_256_374)"/>
<path d="M120.427 691.462C143.3 693.148 155.229 695.055 162.25 702.066C169.272 709.076 171.181 720.986 172.87 743.824C174.56 720.986 176.469 709.076 183.491 702.066C190.512 695.055 202.441 693.148 225.314 691.462C202.441 689.775 190.512 687.869 183.491 680.858C176.469 673.848 174.56 661.938 172.87 639.1C171.181 661.938 169.272 673.848 162.25 680.858C155.229 687.869 143.3 689.775 120.427 691.462Z" fill="url(#paint79_radial_256_374)"/>
<path d="M235.674 691.462C258.547 693.148 270.476 695.055 277.497 702.066C284.519 709.076 286.428 720.986 288.117 743.824C289.807 720.986 291.716 709.076 298.738 702.066C305.759 695.055 317.688 693.148 340.561 691.462C317.688 689.775 305.759 687.869 298.738 680.858C291.716 673.848 289.807 661.938 288.117 639.1C286.428 661.938 284.519 673.848 277.497 680.858C270.476 687.869 258.547 689.775 235.674 691.462ZM288.117 749C287.937 749 287.788 748.86 287.776 748.68C285.991 722.849 284.346 709.878 277.012 702.555C269.677 695.232 256.686 693.589 230.815 691.806C230.634 691.794 230.494 691.646 230.494 691.466C230.494 691.286 230.634 691.137 230.815 691.125C256.686 689.343 269.677 687.7 277.012 680.377C284.346 673.054 285.991 660.083 287.776 634.252C287.788 634.072 287.937 633.932 288.117 633.932C288.298 633.932 288.446 634.072 288.458 634.252C290.244 660.083 291.889 673.054 299.223 680.377C306.558 687.7 319.549 689.343 345.42 691.125C345.601 691.137 345.741 691.286 345.741 691.466C345.741 691.646 345.601 691.794 345.42 691.806C319.549 693.589 306.558 695.232 299.223 702.555C291.889 709.878 290.244 722.849 288.458 748.68C288.446 748.86 288.298 749 288.117 749Z" fill="url(#paint80_radial_256_374)"/>
<path d="M235.674 691.462C258.547 693.148 270.476 695.055 277.497 702.066C284.519 709.076 286.428 720.986 288.117 743.824C289.807 720.986 291.716 709.076 298.738 702.066C305.759 695.055 317.688 693.148 340.561 691.462C317.688 689.775 305.759 687.869 298.738 680.858C291.716 673.848 289.807 661.938 288.117 639.1C286.428 661.938 284.519 673.848 277.497 680.858C270.476 687.869 258.547 689.775 235.674 691.462Z" fill="url(#paint81_radial_256_374)"/>
<path d="M350.933 691.462C373.806 693.148 385.735 695.055 392.756 702.066C399.778 709.076 401.687 720.986 403.376 743.824C405.066 720.986 406.975 709.076 413.997 702.066C421.018 695.055 432.947 693.148 455.82 691.462C432.947 689.775 421.018 687.869 413.997 680.858C406.975 673.848 405.066 661.938 403.376 639.1C401.687 661.938 399.778 673.848 392.756 680.858C385.735 687.869 373.806 689.775 350.933 691.462ZM403.376 749C403.196 749 403.048 748.86 403.035 748.68C401.25 722.849 399.605 709.878 392.271 702.555C384.936 695.232 371.945 693.589 346.074 691.806C345.893 691.794 345.753 691.646 345.753 691.466C345.753 691.286 345.893 691.137 346.074 691.125C371.945 689.343 384.936 687.7 392.271 680.377C399.605 673.054 401.25 660.083 403.035 634.252C403.048 634.072 403.196 633.932 403.376 633.932C403.557 633.932 403.706 634.072 403.718 634.252C405.503 660.083 407.148 673.054 414.482 680.377C421.817 687.7 434.808 689.343 460.679 691.125C460.86 691.137 461 691.286 461 691.466C461 691.646 460.86 691.794 460.679 691.806C434.808 693.589 421.817 695.232 414.482 702.555C407.148 709.878 405.503 722.849 403.718 748.68C403.706 748.86 403.557 749 403.376 749Z" fill="url(#paint82_radial_256_374)"/>
<path d="M350.933 691.462C373.806 693.148 385.735 695.055 392.756 702.066C399.778 709.076 401.687 720.986 403.376 743.824C405.066 720.986 406.975 709.076 413.997 702.066C421.018 695.055 432.947 693.148 455.82 691.462C432.947 689.775 421.018 687.869 413.997 680.858C406.975 673.848 405.066 661.938 403.376 639.1C401.687 661.938 399.778 673.848 392.756 680.858C385.735 687.869 373.806 689.775 350.933 691.462Z" fill="url(#paint83_radial_256_374)"/>
</g>
<defs>
<radialGradient id="paint0_radial_256_374" cx="0" cy="0" r="1" gradientUnits="userSpaceOnUse" gradientTransform="translate(230.5 374.5) rotate(90) scale(374.5 230.5)">
<stop offset="0.364936" stop-color="#91AEC0" stop-opacity="0.15"/>
<stop offset="1" stop-color="#91AEC0"/>
</radialGradient>
<radialGradient id="paint1_radial_256_374" cx="0" cy="0" r="1" gradientUnits="userSpaceOnUse" gradientTransform="translate(230.5 374.5) rotate(90) scale(374.5 230.5)">
<stop offset="0.364936" stop-color="#91AEC0" stop-opacity="0.15"/>
<stop offset="1" stop-color="#91AEC0"/>
</radialGradient>
<radialGradient id="paint2_radial_256_374" cx="0" cy="0" r="1" gradientUnits="userSpaceOnUse" gradientTransform="translate(230.5 374.5) rotate(90) scale(374.5 230.5)">
<stop offset="0.364936" stop-color="#91AEC0" stop-opacity="0.15"/>
<stop offset="1" stop-color="#91AEC0"/>
</radialGradient>
<radialGradient id="paint3_radial_256_374" cx="0" cy="0" r="1" gradientUnits="userSpaceOnUse" gradientTransform="translate(230.5 374.5) rotate(90) scale(374.5 230.5)">
<stop offset="0.364936" stop-color="#91AEC0" stop-opacity="0.15"/>
<stop offset="1" stop-color="#91AEC0"/>
</radialGradient>
<radialGradient id="paint4_radial_256_374" cx="0" cy="0" r="1" gradientUnits="userSpaceOnUse" gradientTransform="translate(230.5 374.5) rotate(90) scale(374.5 230.5)">
<stop offset="0.364936" stop-color="#91AEC0" stop-opacity="0.15"/>
<stop offset="1" stop-color="#91AEC0"/>
</radialGradient>
<radialGradient id="paint5_radial_256_374" cx="0" cy="0" r="1" gradientUnits="userSpaceOnUse" gradientTransform="translate(230.5 374.5) rotate(90) scale(374.5 230.5)">
<stop offset="0.364936" stop-color="#91AEC0" stop-opacity="0.15"/>
<stop offset="1" stop-color="#91AEC0"/>
</radialGradient>
<radialGradient id="paint6_radial_256_374" cx="0" cy="0" r="1" gradientUnits="userSpaceOnUse" gradientTransform="translate(230.5 374.5) rotate(90) scale(374.5 230.5)">
<stop offset="0.364936" stop-color="#91AEC0" stop-opacity="0.15"/>
<stop offset="1" stop-color="#91AEC0"/>
</radialGradient>
<radialGradient id="paint7_radial_256_374" cx="0" cy="0" r="1" gradientUnits="userSpaceOnUse" gradientTransform="translate(230.5 374.5) rotate(90) scale(374.5 230.5)">
<stop offset="0.364936" stop-color="#91AEC0" stop-opacity="0.15"/>
<stop offset="1" stop-color="#91AEC0"/>
</radialGradient>
<radialGradient id="paint8_radial_256_374" cx="0" cy="0" r="1" gradientUnits="userSpaceOnUse" gradientTransform="translate(230.5 374.5) rotate(90) scale(374.5 230.5)">
<stop offset="0.364936" stop-color="#91AEC0" stop-opacity="0.15"/>
<stop offset="1" stop-color="#91AEC0"/>
</radialGradient>
<radialGradient id="paint9_radial_256_374" cx="0" cy="0" r="1" gradientUnits="userSpaceOnUse" gradientTransform="translate(230.5 374.5) rotate(90) scale(374.5 230.5)">
<stop offset="0.364936" stop-color="#91AEC0" stop-opacity="0.15"/>
<stop offset="1" stop-color="#91AEC0"/>
</radialGradient>
<radialGradient id="paint10_radial_256_374" cx="0" cy="0" r="1" gradientUnits="userSpaceOnUse" gradientTransform="translate(230.5 374.5) rotate(90) scale(374.5 230.5)">
<stop offset="0.364936" stop-color="#91AEC0" stop-opacity="0.15"/>
<stop offset="1" stop-color="#91AEC0"/>
</radialGradient>
<radialGradient id="paint11_radial_256_374" cx="0" cy="0" r="1" gradientUnits="userSpaceOnUse" gradientTransform="translate(230.5 374.5) rotate(90) scale(374.5 230.5)">
<stop offset="0.364936" stop-color="#91AEC0" stop-opacity="0.15"/>
<stop offset="1" stop-color="#91AEC0"/>
</radialGradient>
<radialGradient id="paint12_radial_256_374" cx="0" cy="0" r="1" gradientUnits="userSpaceOnUse" gradientTransform="translate(230.5 374.5) rotate(90) scale(374.5 230.5)">
<stop offset="0.364936" stop-color="#91AEC0" stop-opacity="0.15"/>
<stop offset="1" stop-color="#91AEC0"/>
</radialGradient>
<radialGradient id="paint13_radial_256_374" cx="0" cy="0" r="1" gradientUnits="userSpaceOnUse" gradientTransform="translate(230.5 374.5) rotate(90) scale(374.5 230.5)">
<stop offset="0.364936" stop-color="#91AEC0" stop-opacity="0.15"/>
<stop offset="1" stop-color="#91AEC0"/>
</radialGradient>
<radialGradient id="paint14_radial_256_374" cx="0" cy="0" r="1" gradientUnits="userSpaceOnUse" gradientTransform="translate(230.5 374.5) rotate(90) scale(374.5 230.5)">
<stop offset="0.364936" stop-color="#91AEC0" stop-opacity="0.15"/>
<stop offset="1" stop-color="#91AEC0"/>
</radialGradient>
<radialGradient id="paint15_radial_256_374" cx="0" cy="0" r="1" gradientUnits="userSpaceOnUse" gradientTransform="translate(230.5 374.5) rotate(90) scale(374.5 230.5)">
<stop offset="0.364936" stop-color="#91AEC0" stop-opacity="0.15"/>
<stop offset="1" stop-color="#91AEC0"/>
</radialGradient>
<radialGradient id="paint16_radial_256_374" cx="0" cy="0" r="1" gradientUnits="userSpaceOnUse" gradientTransform="translate(230.5 374.5) rotate(90) scale(374.5 230.5)">
<stop offset="0.364936" stop-color="#91AEC0" stop-opacity="0.15"/>
<stop offset="1" stop-color="#91AEC0"/>
</radialGradient>
<radialGradient id="paint17_radial_256_374" cx="0" cy="0" r="1" gradientUnits="userSpaceOnUse" gradientTransform="translate(230.5 374.5) rotate(90) scale(374.5 230.5)">
<stop offset="0.364936" stop-color="#91AEC0" stop-opacity="0.15"/>
<stop offset="1" stop-color="#91AEC0"/>
</radialGradient>
<radialGradient id="paint18_radial_256_374" cx="0" cy="0" r="1" gradientUnits="userSpaceOnUse" gradientTransform="translate(230.5 374.5) rotate(90) scale(374.5 230.5)">
<stop offset="0.364936" stop-color="#91AEC0" stop-opacity="0.15"/>
<stop offset="1" stop-color="#91AEC0"/>
</radialGradient>
<radialGradient id="paint19_radial_256_374" cx="0" cy="0" r="1" gradientUnits="userSpaceOnUse" gradientTransform="translate(230.5 374.5) rotate(90) scale(374.5 230.5)">
<stop offset="0.364936" stop-color="#91AEC0" stop-opacity="0.15"/>
<stop offset="1" stop-color="#91AEC0"/>
</radialGradient>
<radialGradient id="paint20_radial_256_374" cx="0" cy="0" r="1" gradientUnits="userSpaceOnUse" gradientTransform="translate(230.5 374.5) rotate(90) scale(374.5 230.5)">
<stop offset="0.364936" stop-color="#91AEC0" stop-opacity="0.15"/>
<stop offset="1" stop-color="#91AEC0"/>
</radialGradient>
<radialGradient id="paint21_radial_256_374" cx="0" cy="0" r="1" gradientUnits="userSpaceOnUse" gradientTransform="translate(230.5 374.5) rotate(90) scale(374.5 230.5)">
<stop offset="0.364936" stop-color="#91AEC0" stop-opacity="0.15"/>
<stop offset="1" stop-color="#91AEC0"/>
</radialGradient>
<radialGradient id="paint22_radial_256_374" cx="0" cy="0" r="1" gradientUnits="userSpaceOnUse" gradientTransform="translate(230.5 374.5) rotate(90) scale(374.5 230.5)">
<stop offset="0.364936" stop-color="#91AEC0" stop-opacity="0.15"/>
<stop offset="1" stop-color="#91AEC0"/>
</radialGradient>
<radialGradient id="paint23_radial_256_374" cx="0" cy="0" r="1" gradientUnits="userSpaceOnUse" gradientTransform="translate(230.5 374.5) rotate(90) scale(374.5 230.5)">
<stop offset="0.364936" stop-color="#91AEC0" stop-opacity="0.15"/>
<stop offset="1" stop-color="#91AEC0"/>
</radialGradient>
<radialGradient id="paint24_radial_256_374" cx="0" cy="0" r="1" gradientUnits="userSpaceOnUse" gradientTransform="translate(230.5 374.5) rotate(90) scale(374.5 230.5)">
<stop offset="0.364936" stop-color="#91AEC0" stop-opacity="0.15"/>
<stop offset="1" stop-color="#91AEC0"/>
</radialGradient>
<radialGradient id="paint25_radial_256_374" cx="0" cy="0" r="1" gradientUnits="userSpaceOnUse" gradientTransform="translate(230.5 374.5) rotate(90) scale(374.5 230.5)">
<stop offset="0.364936" stop-color="#91AEC0" stop-opacity="0.15"/>
<stop offset="1" stop-color="#91AEC0"/>
</radialGradient>
<radialGradient id="paint26_radial_256_374" cx="0" cy="0" r="1" gradientUnits="userSpaceOnUse" gradientTransform="translate(230.5 374.5) rotate(90) scale(374.5 230.5)">
<stop offset="0.364936" stop-color="#91AEC0" stop-opacity="0.15"/>
<stop offset="1" stop-color="#91AEC0"/>
</radialGradient>
<radialGradient id="paint27_radial_256_374" cx="0" cy="0" r="1" gradientUnits="userSpaceOnUse" gradientTransform="translate(230.5 374.5) rotate(90) scale(374.5 230.5)">
<stop offset="0.364936" stop-color="#91AEC0" stop-opacity="0.15"/>
<stop offset="1" stop-color="#91AEC0"/>
</radialGradient>
<radialGradient id="paint28_radial_256_374" cx="0" cy="0" r="1" gradientUnits="userSpaceOnUse" gradientTransform="translate(230.5 374.5) rotate(90) scale(374.5 230.5)">
<stop offset="0.364936" stop-color="#91AEC0" stop-opacity="0.15"/>
<stop offset="1" stop-color="#91AEC0"/>
</radialGradient>
<radialGradient id="paint29_radial_256_374" cx="0" cy="0" r="1" gradientUnits="userSpaceOnUse" gradientTransform="translate(230.5 374.5) rotate(90) scale(374.5 230.5)">
<stop offset="0.364936" stop-color="#91AEC0" stop-opacity="0.15"/>
<stop offset="1" stop-color="#91AEC0"/>
</radialGradient>
<radialGradient id="paint30_radial_256_374" cx="0" cy="0" r="1" gradientUnits="userSpaceOnUse" gradientTransform="translate(230.5 374.5) rotate(90) scale(374.5 230.5)">
<stop offset="0.364936" stop-color="#91AEC0" stop-opacity="0.15"/>
<stop offset="1" stop-color="#91AEC0"/>
</radialGradient>
<radialGradient id="paint31_radial_256_374" cx="0" cy="0" r="1" gradientUnits="userSpaceOnUse" gradientTransform="translate(230.5 374.5) rotate(90) scale(374.5 230.5)">
<stop offset="0.364936" stop-color="#91AEC0" stop-opacity="0.15"/>
<stop offset="1" stop-color="#91AEC0"/>
</radialGradient>
<radialGradient id="paint32_radial_256_374" cx="0" cy="0" r="1" gradientUnits="userSpaceOnUse" gradientTransform="translate(230.5 374.5) rotate(90) scale(374.5 230.5)">
<stop offset="0.364936" stop-color="#91AEC0" stop-opacity="0.15"/>
<stop offset="1" stop-color="#91AEC0"/>
</radialGradient>
<radialGradient id="paint33_radial_256_374" cx="0" cy="0" r="1" gradientUnits="userSpaceOnUse" gradientTransform="translate(230.5 374.5) rotate(90) scale(374.5 230.5)">
<stop offset="0.364936" stop-color="#91AEC0" stop-opacity="0.15"/>
<stop offset="1" stop-color="#91AEC0"/>
</radialGradient>
<radialGradient id="paint34_radial_256_374" cx="0" cy="0" r="1" gradientUnits="userSpaceOnUse" gradientTransform="translate(230.5 374.5) rotate(90) scale(374.5 230.5)">
<stop offset="0.364936" stop-color="#91AEC0" stop-opacity="0.15"/>
<stop offset="1" stop-color="#91AEC0"/>
</radialGradient>
<radialGradient id="paint35_radial_256_374" cx="0" cy="0" r="1" gradientUnits="userSpaceOnUse" gradientTransform="translate(230.5 374.5) rotate(90) scale(374.5 230.5)">
<stop offset="0.364936" stop-color="#91AEC0" stop-opacity="0.15"/>
<stop offset="1" stop-color="#91AEC0"/>
</radialGradient>
<radialGradient id="paint36_radial_256_374" cx="0" cy="0" r="1" gradientUnits="userSpaceOnUse" gradientTransform="translate(230.5 374.5) rotate(90) scale(374.5 230.5)">
<stop offset="0.364936" stop-color="#91AEC0" stop-opacity="0.15"/>
<stop offset="1" stop-color="#91AEC0"/>
</radialGradient>
<radialGradient id="paint37_radial_256_374" cx="0" cy="0" r="1" gradientUnits="userSpaceOnUse" gradientTransform="translate(230.5 374.5) rotate(90) scale(374.5 230.5)">
<stop offset="0.364936" stop-color="#91AEC0" stop-opacity="0.15"/>
<stop offset="1" stop-color="#91AEC0"/>
</radialGradient>
<radialGradient id="paint38_radial_256_374" cx="0" cy="0" r="1" gradientUnits="userSpaceOnUse" gradientTransform="translate(230.5 374.5) rotate(90) scale(374.5 230.5)">
<stop offset="0.364936" stop-color="#91AEC0" stop-opacity="0.15"/>
<stop offset="1" stop-color="#91AEC0"/>
</radialGradient>
<radialGradient id="paint39_radial_256_374" cx="0" cy="0" r="1" gradientUnits="userSpaceOnUse" gradientTransform="translate(230.5 374.5) rotate(90) scale(374.5 230.5)">
<stop offset="0.364936" stop-color="#91AEC0" stop-opacity="0.15"/>
<stop offset="1" stop-color="#91AEC0"/>
</radialGradient>
<radialGradient id="paint40_radial_256_374" cx="0" cy="0" r="1" gradientUnits="userSpaceOnUse" gradientTransform="translate(230.5 374.5) rotate(90) scale(374.5 230.5)">
<stop offset="0.364936" stop-color="#91AEC0" stop-opacity="0.15"/>
<stop offset="1" stop-color="#91AEC0"/>
</radialGradient>
<radialGradient id="paint41_radial_256_374" cx="0" cy="0" r="1" gradientUnits="userSpaceOnUse" gradientTransform="translate(230.5 374.5) rotate(90) scale(374.5 230.5)">
<stop offset="0.364936" stop-color="#91AEC0" stop-opacity="0.15"/>
<stop offset="1" stop-color="#91AEC0"/>
</radialGradient>
<radialGradient id="paint42_radial_256_374" cx="0" cy="0" r="1" gradientUnits="userSpaceOnUse" gradientTransform="translate(230.5 374.5) rotate(90) scale(374.5 230.5)">
<stop offset="0.364936" stop-color="#91AEC0" stop-opacity="0.15"/>
<stop offset="1" stop-color="#91AEC0"/>
</radialGradient>
<radialGradient id="paint43_radial_256_374" cx="0" cy="0" r="1" gradientUnits="userSpaceOnUse" gradientTransform="translate(230.5 374.5) rotate(90) scale(374.5 230.5)">
<stop offset="0.364936" stop-color="#91AEC0" stop-opacity="0.15"/>
<stop offset="1" stop-color="#91AEC0"/>
</radialGradient>
<radialGradient id="paint44_radial_256_374" cx="0" cy="0" r="1" gradientUnits="userSpaceOnUse" gradientTransform="translate(230.5 374.5) rotate(90) scale(374.5 230.5)">
<stop offset="0.364936" stop-color="#91AEC0" stop-opacity="0.15"/>
<stop offset="1" stop-color="#91AEC0"/>
</radialGradient>
<radialGradient id="paint45_radial_256_374" cx="0" cy="0" r="1" gradientUnits="userSpaceOnUse" gradientTransform="translate(230.5 374.5) rotate(90) scale(374.5 230.5)">
<stop offset="0.364936" stop-color="#91AEC0" stop-opacity="0.15"/>
<stop offset="1" stop-color="#91AEC0"/>
</radialGradient>
<radialGradient id="paint46_radial_256_374" cx="0" cy="0" r="1" gradientUnits="userSpaceOnUse" gradientTransform="translate(230.5 374.5) rotate(90) scale(374.5 230.5)">
<stop offset="0.364936" stop-color="#91AEC0" stop-opacity="0.15"/>
<stop offset="1" stop-color="#91AEC0"/>
</radialGradient>
<radialGradient id="paint47_radial_256_374" cx="0" cy="0" r="1" gradientUnits="userSpaceOnUse" gradientTransform="translate(230.5 374.5) rotate(90) scale(374.5 230.5)">
<stop offset="0.364936" stop-color="#91AEC0" stop-opacity="0.15"/>
<stop offset="1" stop-color="#91AEC0"/>
</radialGradient>
<radialGradient id="paint48_radial_256_374" cx="0" cy="0" r="1" gradientUnits="userSpaceOnUse" gradientTransform="translate(230.5 374.5) rotate(90) scale(374.5 230.5)">
<stop offset="0.364936" stop-color="#91AEC0" stop-opacity="0.15"/>
<stop offset="1" stop-color="#91AEC0"/>
</radialGradient>
<radialGradient id="paint49_radial_256_374" cx="0" cy="0" r="1" gradientUnits="userSpaceOnUse" gradientTransform="translate(230.5 374.5) rotate(90) scale(374.5 230.5)">
<stop offset="0.364936" stop-color="#91AEC0" stop-opacity="0.15"/>
<stop offset="1" stop-color="#91AEC0"/>
</radialGradient>
<radialGradient id="paint50_radial_256_374" cx="0" cy="0" r="1" gradientUnits="userSpaceOnUse" gradientTransform="translate(230.5 374.5) rotate(90) scale(374.5 230.5)">
<stop offset="0.364936" stop-color="#91AEC0" stop-opacity="0.15"/>
<stop offset="1" stop-color="#91AEC0"/>
</radialGradient>
<radialGradient id="paint51_radial_256_374" cx="0" cy="0" r="1" gradientUnits="userSpaceOnUse" gradientTransform="translate(230.5 374.5) rotate(90) scale(374.5 230.5)">
<stop offset="0.364936" stop-color="#91AEC0" stop-opacity="0.15"/>
<stop offset="1" stop-color="#91AEC0"/>
</radialGradient>
<radialGradient id="paint52_radial_256_374" cx="0" cy="0" r="1" gradientUnits="userSpaceOnUse" gradientTransform="translate(230.5 374.5) rotate(90) scale(374.5 230.5)">
<stop offset="0.364936" stop-color="#91AEC0" stop-opacity="0.15"/>
<stop offset="1" stop-color="#91AEC0"/>
</radialGradient>
<radialGradient id="paint53_radial_256_374" cx="0" cy="0" r="1" gradientUnits="userSpaceOnUse" gradientTransform="translate(230.5 374.5) rotate(90) scale(374.5 230.5)">
<stop offset="0.364936" stop-color="#91AEC0" stop-opacity="0.15"/>
<stop offset="1" stop-color="#91AEC0"/>
</radialGradient>
<radialGradient id="paint54_radial_256_374" cx="0" cy="0" r="1" gradientUnits="userSpaceOnUse" gradientTransform="translate(230.5 374.5) rotate(90) scale(374.5 230.5)">
<stop offset="0.364936" stop-color="#91AEC0" stop-opacity="0.15"/>
<stop offset="1" stop-color="#91AEC0"/>
</radialGradient>
<radialGradient id="paint55_radial_256_374" cx="0" cy="0" r="1" gradientUnits="userSpaceOnUse" gradientTransform="translate(230.5 374.5) rotate(90) scale(374.5 230.5)">
<stop offset="0.364936" stop-color="#91AEC0" stop-opacity="0.15"/>
<stop offset="1" stop-color="#91AEC0"/>
</radialGradient>
<radialGradient id="paint56_radial_256_374" cx="0" cy="0" r="1" gradientUnits="userSpaceOnUse" gradientTransform="translate(230.5 374.5) rotate(90) scale(374.5 230.5)">
<stop offset="0.364936" stop-color="#91AEC0" stop-opacity="0.15"/>
<stop offset="1" stop-color="#91AEC0"/>
</radialGradient>
<radialGradient id="paint57_radial_256_374" cx="0" cy="0" r="1" gradientUnits="userSpaceOnUse" gradientTransform="translate(230.5 374.5) rotate(90) scale(374.5 230.5)">
<stop offset="0.364936" stop-color="#91AEC0" stop-opacity="0.15"/>
<stop offset="1" stop-color="#91AEC0"/>
</radialGradient>
<radialGradient id="paint58_radial_256_374" cx="0" cy="0" r="1" gradientUnits="userSpaceOnUse" gradientTransform="translate(230.5 374.5) rotate(90) scale(374.5 230.5)">
<stop offset="0.364936" stop-color="#91AEC0" stop-opacity="0.15"/>
<stop offset="1" stop-color="#91AEC0"/>
</radialGradient>
<radialGradient id="paint59_radial_256_374" cx="0" cy="0" r="1" gradientUnits="userSpaceOnUse" gradientTransform="translate(230.5 374.5) rotate(90) scale(374.5 230.5)">
<stop offset="0.364936" stop-color="#91AEC0" stop-opacity="0.15"/>
<stop offset="1" stop-color="#91AEC0"/>
</radialGradient>
<radialGradient id="paint60_radial_256_374" cx="0" cy="0" r="1" gradientUnits="userSpaceOnUse" gradientTransform="translate(230.5 374.5) rotate(90) scale(374.5 230.5)">
<stop offset="0.364936" stop-color="#91AEC0" stop-opacity="0.15"/>
<stop offset="1" stop-color="#91AEC0"/>
</radialGradient>
<radialGradient id="paint61_radial_256_374" cx="0" cy="0" r="1" gradientUnits="userSpaceOnUse" gradientTransform="translate(230.5 374.5) rotate(90) scale(374.5 230.5)">
<stop offset="0.364936" stop-color="#91AEC0" stop-opacity="0.15"/>
<stop offset="1" stop-color="#91AEC0"/>
</radialGradient>
<radialGradient id="paint62_radial_256_374" cx="0" cy="0" r="1" gradientUnits="userSpaceOnUse" gradientTransform="translate(230.5 374.5) rotate(90) scale(374.5 230.5)">
<stop offset="0.364936" stop-color="#91AEC0" stop-opacity="0.15"/>
<stop offset="1" stop-color="#91AEC0"/>
</radialGradient>
<radialGradient id="paint63_radial_256_374" cx="0" cy="0" r="1" gradientUnits="userSpaceOnUse" gradientTransform="translate(230.5 374.5) rotate(90) scale(374.5 230.5)">
<stop offset="0.364936" stop-color="#91AEC0" stop-opacity="0.15"/>
<stop offset="1" stop-color="#91AEC0"/>
</radialGradient>
<radialGradient id="paint64_radial_256_374" cx="0" cy="0" r="1" gradientUnits="userSpaceOnUse" gradientTransform="translate(230.5 374.5) rotate(90) scale(374.5 230.5)">
<stop offset="0.364936" stop-color="#91AEC0" stop-opacity="0.15"/>
<stop offset="1" stop-color="#91AEC0"/>
</radialGradient>
<radialGradient id="paint65_radial_256_374" cx="0" cy="0" r="1" gradientUnits="userSpaceOnUse" gradientTransform="translate(230.5 374.5) rotate(90) scale(374.5 230.5)">
<stop offset="0.364936" stop-color="#91AEC0" stop-opacity="0.15"/>
<stop offset="1" stop-color="#91AEC0"/>
</radialGradient>
<radialGradient id="paint66_radial_256_374" cx="0" cy="0" r="1" gradientUnits="userSpaceOnUse" gradientTransform="translate(230.5 374.5) rotate(90) scale(374.5 230.5)">
<stop offset="0.364936" stop-color="#91AEC0" stop-opacity="0.15"/>
<stop offset="1" stop-color="#91AEC0"/>
</radialGradient>
<radialGradient id="paint67_radial_256_374" cx="0" cy="0" r="1" gradientUnits="userSpaceOnUse" gradientTransform="translate(230.5 374.5) rotate(90) scale(374.5 230.5)">
<stop offset="0.364936" stop-color="#91AEC0" stop-opacity="0.15"/>
<stop offset="1" stop-color="#91AEC0"/>
</radialGradient>
<radialGradient id="paint68_radial_256_374" cx="0" cy="0" r="1" gradientUnits="userSpaceOnUse" gradientTransform="translate(230.5 374.5) rotate(90) scale(374.5 230.5)">
<stop offset="0.364936" stop-color="#91AEC0" stop-opacity="0.15"/>
<stop offset="1" stop-color="#91AEC0"/>
</radialGradient>
<radialGradient id="paint69_radial_256_374" cx="0" cy="0" r="1" gradientUnits="userSpaceOnUse" gradientTransform="translate(230.5 374.5) rotate(90) scale(374.5 230.5)">
<stop offset="0.364936" stop-color="#91AEC0" stop-opacity="0.15"/>
<stop offset="1" stop-color="#91AEC0"/>
</radialGradient>
<radialGradient id="paint70_radial_256_374" cx="0" cy="0" r="1" gradientUnits="userSpaceOnUse" gradientTransform="translate(230.5 374.5) rotate(90) scale(374.5 230.5)">
<stop offset="0.364936" stop-color="#91AEC0" stop-opacity="0.15"/>
<stop offset="1" stop-color="#91AEC0"/>
</radialGradient>
<radialGradient id="paint71_radial_256_374" cx="0" cy="0" r="1" gradientUnits="userSpaceOnUse" gradientTransform="translate(230.5 374.5) rotate(90) scale(374.5 230.5)">
<stop offset="0.364936" stop-color="#91AEC0" stop-opacity="0.15"/>
<stop offset="1" stop-color="#91AEC0"/>
</radialGradient>
<radialGradient id="paint72_radial_256_374" cx="0" cy="0" r="1" gradientUnits="userSpaceOnUse" gradientTransform="translate(230.5 374.5) rotate(90) scale(374.5 230.5)">
<stop offset="0.364936" stop-color="#91AEC0" stop-opacity="0.15"/>
<stop offset="1" stop-color="#91AEC0"/>
</radialGradient>
<radialGradient id="paint73_radial_256_374" cx="0" cy="0" r="1" gradientUnits="userSpaceOnUse" gradientTransform="translate(230.5 374.5) rotate(90) scale(374.5 230.5)">
<stop offset="0.364936" stop-color="#91AEC0" stop-opacity="0.15"/>
<stop offset="1" stop-color="#91AEC0"/>
</radialGradient>
<radialGradient id="paint74_radial_256_374" cx="0" cy="0" r="1" gradientUnits="userSpaceOnUse" gradientTransform="translate(230.5 374.5) rotate(90) scale(374.5 230.5)">
<stop offset="0.364936" stop-color="#91AEC0" stop-opacity="0.15"/>
<stop offset="1" stop-color="#91AEC0"/>
</radialGradient>
<radialGradient id="paint75_radial_256_374" cx="0" cy="0" r="1" gradientUnits="userSpaceOnUse" gradientTransform="translate(230.5 374.5) rotate(90) scale(374.5 230.5)">
<stop offset="0.364936" stop-color="#91AEC0" stop-opacity="0.15"/>
<stop offset="1" stop-color="#91AEC0"/>
</radialGradient>
<radialGradient id="paint76_radial_256_374" cx="0" cy="0" r="1" gradientUnits="userSpaceOnUse" gradientTransform="translate(230.5 374.5) rotate(90) scale(374.5 230.5)">
<stop offset="0.364936" stop-color="#91AEC0" stop-opacity="0.15"/>
<stop offset="1" stop-color="#91AEC0"/>
</radialGradient>
<radialGradient id="paint77_radial_256_374" cx="0" cy="0" r="1" gradientUnits="userSpaceOnUse" gradientTransform="translate(230.5 374.5) rotate(90) scale(374.5 230.5)">
<stop offset="0.364936" stop-color="#91AEC0" stop-opacity="0.15"/>
<stop offset="1" stop-color="#91AEC0"/>
</radialGradient>
<radialGradient id="paint78_radial_256_374" cx="0" cy="0" r="1" gradientUnits="userSpaceOnUse" gradientTransform="translate(230.5 374.5) rotate(90) scale(374.5 230.5)">
<stop offset="0.364936" stop-color="#91AEC0" stop-opacity="0.15"/>
<stop offset="1" stop-color="#91AEC0"/>
</radialGradient>
<radialGradient id="paint79_radial_256_374" cx="0" cy="0" r="1" gradientUnits="userSpaceOnUse" gradientTransform="translate(230.5 374.5) rotate(90) scale(374.5 230.5)">
<stop offset="0.364936" stop-color="#91AEC0" stop-opacity="0.15"/>
<stop offset="1" stop-color="#91AEC0"/>
</radialGradient>
<radialGradient id="paint80_radial_256_374" cx="0" cy="0" r="1" gradientUnits="userSpaceOnUse" gradientTransform="translate(230.5 374.5) rotate(90) scale(374.5 230.5)">
<stop offset="0.364936" stop-color="#91AEC0" stop-opacity="0.15"/>
<stop offset="1" stop-color="#91AEC0"/>
</radialGradient>
<radialGradient id="paint81_radial_256_374" cx="0" cy="0" r="1" gradientUnits="userSpaceOnUse" gradientTransform="translate(230.5 374.5) rotate(90) scale(374.5 230.5)">
<stop offset="0.364936" stop-color="#91AEC0" stop-opacity="0.15"/>
<stop offset="1" stop-color="#91AEC0"/>
</radialGradient>
<radialGradient id="paint82_radial_256_374" cx="0" cy="0" r="1" gradientUnits="userSpaceOnUse" gradientTransform="translate(230.5 374.5) rotate(90) scale(374.5 230.5)">
<stop offset="0.364936" stop-color="#91AEC0" stop-opacity="0.15"/>
<stop offset="1" stop-color="#91AEC0"/>
</radialGradient>
<radialGradient id="paint83_radial_256_374" cx="0" cy="0" r="1" gradientUnits="userSpaceOnUse" gradientTransform="translate(230.5 374.5) rotate(90) scale(374.5 230.5)">
<stop offset="0.364936" stop-color="#91AEC0" stop-opacity="0.15"/>
<stop offset="1" stop-color="#91AEC0"/>
</radialGradient>
</defs>
</svg>
